Hubballi-Regular-Glyphs copy 2.ufo
<glyph name="parenright" format="1">
  <advance width="335"/>
  <unicode hex="0029"/>
  <outline>
    <contour>
      <point x="213" y="261" type="curve" smooth="yes"/>
      <point x="213" y="136"/>
      <point x="159" y="21"/>
      <point x="84" y="-57" type="curve" smooth="yes"/>
      <point x="80" y="-61"/>
      <point x="77" y="-68"/>
      <point x="77" y="-74" type="curve" smooth="yes"/>
      <point x="77" y="-87"/>
      <point x="89" y="-99"/>
      <point x="102" y="-99" type="curve" smooth="yes"/>
      <point x="109" y="-99"/>
      <point x="115" y="-96"/>
      <point x="120" y="-91" type="curve" smooth="yes"/>
      <point x="203" y="-5"/>
      <point x="263" y="122"/>
      <point x="263" y="261" type="curve" smooth="yes"/>
      <point x="263" y="401"/>
      <point x="199" y="535"/>
      <point x="121" y="622" type="curve" smooth="yes"/>
      <point x="116" y="627"/>
      <point x="108" y="630"/>
      <point x="101" y="630" type="curve" smooth="yes"/>
      <point x="86" y="630"/>
      <point x="77" y="617"/>
      <point x="77" y="604" type="curve" smooth="yes"/>
      <point x="77" y="598"/>
      <point x="79" y="593"/>
      <point x="83" y="588" type="curve" smooth="yes"/>
      <point x="155" y="509"/>
      <point x="213" y="389"/>
    </contour>
  </outline>
</glyph>
<glyph name="hyphen" format="1">
  <advance width="420"/>
  <unicode hex="002D"/>
  <outline>
    <contour>
      <point x="109" y="245" type="line" smooth="yes"/>
      <point x="96" y="245"/>
      <point x="84" y="234"/>
      <point x="84" y="220" type="curve" smooth="yes"/>
      <point x="84" y="207"/>
      <point x="96" y="195"/>
      <point x="109" y="195" type="curve" smooth="yes"/>
      <point x="311" y="195" type="line" smooth="yes"/>
      <point x="325" y="195"/>
      <point x="336" y="207"/>
      <point x="336" y="220" type="curve" smooth="yes"/>
      <point x="336" y="234"/>
      <point x="325" y="245"/>
      <point x="311" y="245" type="curve" smooth="yes"/>
    </contour>
  </outline>
</glyph>
<glyph name="C" format="1">
  <advance width="566"/>
  <unicode hex="0043"/>
  <outline>
    <contour>
      <point x="458" y="468" type="curve" smooth="yes"/>
      <point x="462" y="466"/>
      <point x="466" y="465"/>
      <point x="470" y="465" type="curve" smooth="yes"/>
      <point x="485" y="465"/>
      <point x="495" y="478"/>
      <point x="495" y="490" type="curve" smooth="yes"/>
      <point x="495" y="499"/>
      <point x="490" y="507"/>
      <point x="482" y="512" type="curve" smooth="yes"/>
      <point x="446" y="532"/>
      <point x="392" y="544"/>
      <point x="334" y="544" type="curve" smooth="yes"/>
      <point x="188" y="544"/>
      <point x="61" y="432"/>
      <point x="61" y="264" type="curve" smooth="yes"/>
      <point x="61" y="110"/>
      <point x="163" y="-9"/>
      <point x="340" y="-9" type="curve" smooth="yes"/>
      <point x="396" y="-9"/>
      <point x="446" y="3"/>
      <point x="486" y="24" type="curve" smooth="yes"/>
      <point x="495" y="28"/>
      <point x="500" y="37"/>
      <point x="500" y="46" type="curve" smooth="yes"/>
      <point x="500" y="61"/>
      <point x="489" y="71"/>
      <point x="475" y="71" type="curve" smooth="yes"/>
      <point x="471" y="71"/>
      <point x="467" y="70"/>
      <point x="464" y="68" type="curve" smooth="yes"/>
      <point x="430" y="51"/>
      <point x="388" y="41"/>
      <point x="340" y="41" type="curve" smooth="yes"/>
      <point x="195" y="41"/>
      <point x="111" y="138"/>
      <point x="111" y="264" type="curve" smooth="yes"/>
      <point x="111" y="402"/>
      <point x="214" y="494"/>
      <point x="334" y="494" type="curve" smooth="yes"/>
      <point x="382" y="494"/>
      <point x="428" y="484"/>
    </contour>
  </outline>
</glyph>
<glyph name="H" format="1">
  <advance width="631"/>
  <unicode hex="0048"/>
  <outline>
    <contour>
      <point x="508" y="0" type="curve" smooth="yes"/>
      <point x="522" y="0"/>
      <point x="533" y="11"/>
      <point x="533" y="25" type="curve" smooth="yes"/>
      <point x="533" y="510" type="line" smooth="yes"/>
      <point x="533" y="524"/>
      <point x="522" y="535"/>
      <point x="508" y="535" type="curve" smooth="yes"/>
      <point x="495" y="535"/>
      <point x="483" y="524"/>
      <point x="483" y="510" type="curve" smooth="yes"/>
      <point x="483" y="310" type="line"/>
      <point x="148" y="310" type="line"/>
      <point x="148" y="510" type="line" smooth="yes"/>
      <point x="148" y="524"/>
      <point x="137" y="535"/>
      <point x="123" y="535" type="curve" smooth="yes"/>
      <point x="110" y="535"/>
      <point x="98" y="524"/>
      <point x="98" y="510" type="curve" smooth="yes"/>
      <point x="98" y="25" type="line" smooth="yes"/>
      <point x="98" y="12"/>
      <point x="110" y="0"/>
      <point x="123" y="0" type="curve" smooth="yes"/>
      <point x="137" y="0"/>
      <point x="148" y="11"/>
      <point x="148" y="25" type="curve" smooth="yes"/>
      <point x="148" y="260" type="line"/>
      <point x="483" y="260" type="line"/>
      <point x="483" y="25" type="line" smooth="yes"/>
      <point x="483" y="12"/>
      <point x="495" y="0"/>
    </contour>
  </outline>
</glyph>
<glyph name="K" format="1">
  <advance width="557"/>
  <unicode hex="004B"/>
  <outline>
    <contour>
      <point x="479" y="0" type="curve" smooth="yes"/>
      <point x="493" y="0"/>
      <point x="504" y="13"/>
      <point x="504" y="25" type="curve" smooth="yes"/>
      <point x="504" y="31"/>
      <point x="502" y="37"/>
      <point x="498" y="41" type="curve" smooth="yes"/>
      <point x="447" y="99"/>
      <point x="341" y="229"/>
      <point x="280" y="302" type="curve"/>
      <point x="348" y="365"/>
      <point x="425" y="438"/>
      <point x="477" y="493" type="curve" smooth="yes"/>
      <point x="481" y="498"/>
      <point x="484" y="504"/>
      <point x="484" y="510" type="curve" smooth="yes"/>
      <point x="484" y="523"/>
      <point x="472" y="535"/>
      <point x="459" y="535" type="curve" smooth="yes"/>
      <point x="452" y="535"/>
      <point x="446" y="532"/>
      <point x="441" y="527" type="curve" smooth="yes"/>
      <point x="360" y="443"/>
      <point x="223" y="318"/>
      <point x="148" y="249" type="curve"/>
      <point x="148" y="510" type="line" smooth="yes"/>
      <point x="148" y="524"/>
      <point x="137" y="535"/>
      <point x="123" y="535" type="curve" smooth="yes"/>
      <point x="110" y="535"/>
      <point x="98" y="524"/>
      <point x="98" y="510" type="curve" smooth="yes"/>
      <point x="98" y="25" type="line" smooth="yes"/>
      <point x="98" y="12"/>
      <point x="110" y="0"/>
      <point x="123" y="0" type="curve" smooth="yes"/>
      <point x="137" y="0"/>
      <point x="148" y="11"/>
      <point x="148" y="25" type="curve" smooth="yes"/>
      <point x="148" y="182" type="line"/>
      <point x="168" y="201"/>
      <point x="203" y="232"/>
      <point x="243" y="269" type="curve"/>
      <point x="304" y="195"/>
      <point x="409" y="67"/>
      <point x="460" y="9" type="curve" smooth="yes"/>
      <point x="465" y="3"/>
      <point x="472" y="0"/>
    </contour>
  </outline>
</glyph>
<glyph name="L" format="1">
  <advance width="459"/>
  <unicode hex="004C"/>
  <outline>
    <contour>
      <point x="394" y="0" type="line" smooth="yes"/>
      <point x="408" y="0"/>
      <point x="419" y="12"/>
      <point x="419" y="25" type="curve" smooth="yes"/>
      <point x="419" y="39"/>
      <point x="408" y="50"/>
      <point x="394" y="50" type="curve" smooth="yes"/>
      <point x="148" y="50" type="line"/>
      <point x="148" y="510" type="line" smooth="yes"/>
      <point x="148" y="524"/>
      <point x="137" y="535"/>
      <point x="123" y="535" type="curve" smooth="yes"/>
      <point x="110" y="535"/>
      <point x="98" y="524"/>
      <point x="98" y="510" type="curve" smooth="yes"/>
      <point x="98" y="25" type="line" smooth="yes"/>
      <point x="98" y="12"/>
      <point x="110" y="0"/>
      <point x="123" y="0" type="curve" smooth="yes"/>
    </contour>
  </outline>
</glyph>
<glyph name="backslash" format="1">
  <advance width="395"/>
  <unicode hex="005C"/>
  <outline>
    <contour>
      <point x="99" y="634" type="line" smooth="yes"/>
      <point x="96" y="643"/>
      <point x="86" y="650"/>
      <point x="76" y="650" type="curve" smooth="yes"/>
      <point x="64" y="650"/>
      <point x="52" y="640"/>
      <point x="52" y="624" type="curve" smooth="yes"/>
      <point x="52" y="620"/>
      <point x="55" y="611"/>
      <point x="63" y="588" type="curve" smooth="yes"/>
      <point x="302" y="-64" type="line" smooth="yes"/>
      <point x="305" y="-73"/>
      <point x="315" y="-80"/>
      <point x="325" y="-80" type="curve" smooth="yes"/>
      <point x="340" y="-80"/>
      <point x="350" y="-68"/>
      <point x="350" y="-55" type="curve" smooth="yes"/>
      <point x="350" y="-51"/>
      <point x="347" y="-43"/>
      <point x="341" y="-27" type="curve" smooth="yes"/>
    </contour>
  </outline>
</glyph>
<glyph name="c" format="1">
  <advance width="436"/>
  <unicode hex="0063"/>
  <outline>
    <contour>
      <point x="330" y="331" type="curve" smooth="yes"/>
      <point x="341" y="328"/>
      <point x="345" y="327"/>
      <point x="348" y="327" type="curve" smooth="yes"/>
      <point x="361" y="327"/>
      <point x="374" y="339"/>
      <point x="374" y="351" type="curve" smooth="yes"/>
      <point x="374" y="362"/>
      <point x="368" y="372"/>
      <point x="357" y="376" type="curve" smooth="yes"/>
      <point x="328" y="386"/>
      <point x="292" y="392"/>
      <point x="260" y="392" type="curve" smooth="yes"/>
      <point x="126" y="392"/>
      <point x="49" y="305"/>
      <point x="49" y="187" type="curve" smooth="yes"/>
      <point x="49" y="84"/>
      <point x="122" y="0"/>
      <point x="259" y="0" type="curve" smooth="yes"/>
      <point x="304" y="0"/>
      <point x="340" y="9"/>
      <point x="370" y="21" type="curve" smooth="yes"/>
      <point x="380" y="25"/>
      <point x="386" y="34"/>
      <point x="386" y="44" type="curve" smooth="yes"/>
      <point x="386" y="57"/>
      <point x="374" y="69"/>
      <point x="361" y="69" type="curve" smooth="yes"/>
      <point x="358" y="69"/>
      <point x="355" y="68"/>
      <point x="341" y="63" type="curve" smooth="yes"/>
      <point x="325" y="57"/>
      <point x="296" y="50"/>
      <point x="259" y="50" type="curve" smooth="yes"/>
      <point x="158" y="50"/>
      <point x="99" y="108"/>
      <point x="99" y="187" type="curve" smooth="yes"/>
      <point x="99" y="277"/>
      <point x="158" y="342"/>
      <point x="260" y="342" type="curve" smooth="yes"/>
      <point x="284" y="342"/>
      <point x="307" y="338"/>
    </contour>
  </outline>
</glyph>
<glyph name="k" format="1">
  <advance width="469"/>
  <unicode hex="006B"/>
  <outline>
    <contour>
      <point x="395" y="0" type="curve" smooth="yes"/>
      <point x="408" y="0"/>
      <point x="420" y="11"/>
      <point x="420" y="25" type="curve" smooth="yes"/>
      <point x="420" y="30"/>
      <point x="418" y="36"/>
      <point x="415" y="40" type="curve" smooth="yes"/>
      <point x="268" y="246" type="line"/>
      <point x="397" y="347" type="line" smooth="yes"/>
      <point x="404" y="352"/>
      <point x="407" y="360"/>
      <point x="407" y="368" type="curve" smooth="yes"/>
      <point x="407" y="382"/>
      <point x="395" y="392"/>
      <point x="381" y="392" type="curve" smooth="yes"/>
      <point x="376" y="392"/>
      <point x="371" y="390"/>
      <point x="367" y="387" type="curve" smooth="yes"/>
      <point x="135" y="205" type="line"/>
      <point x="135" y="536" type="line" smooth="yes"/>
      <point x="135" y="550"/>
      <point x="124" y="561"/>
      <point x="110" y="561" type="curve" smooth="yes"/>
      <point x="97" y="561"/>
      <point x="85" y="550"/>
      <point x="85" y="536" type="curve" smooth="yes"/>
      <point x="85" y="25" type="line" smooth="yes"/>
      <point x="85" y="12"/>
      <point x="97" y="0"/>
      <point x="110" y="0" type="curve" smooth="yes"/>
      <point x="124" y="0"/>
      <point x="135" y="11"/>
      <point x="135" y="25" type="curve" smooth="yes"/>
      <point x="135" y="141" type="line"/>
      <point x="229" y="215" type="line"/>
      <point x="375" y="10" type="line"/>
      <point x="379" y="3"/>
      <point x="387" y="0"/>
    </contour>
  </outline>
</glyph>
<glyph name="q" format="1">
  <advance width="505"/>
  <unicode hex="0071"/>
  <outline>
    <contour>
      <point x="395" y="-191" type="curve" smooth="yes"/>
      <point x="409" y="-191"/>
      <point x="420" y="-180"/>
      <point x="420" y="-166" type="curve" smooth="yes"/>
      <point x="420" y="367" type="line" smooth="yes"/>
      <point x="420" y="381"/>
      <point x="409" y="392"/>
      <point x="395" y="392" type="curve" smooth="yes"/>
      <point x="383" y="392"/>
      <point x="371" y="382"/>
      <point x="370" y="368" type="curve"/>
      <point x="335" y="384"/>
      <point x="297" y="392"/>
      <point x="251" y="392" type="curve" smooth="yes"/>
      <point x="143" y="392"/>
      <point x="49" y="313"/>
      <point x="49" y="181" type="curve" smooth="yes"/>
      <point x="49" y="66"/>
      <point x="134" y="0"/>
      <point x="222" y="0" type="curve" smooth="yes"/>
      <point x="274" y="0"/>
      <point x="326" y="20"/>
      <point x="370" y="63" type="curve"/>
      <point x="370" y="-166" type="line" smooth="yes"/>
      <point x="370" y="-180"/>
      <point x="382" y="-191"/>
    </contour>
    <contour>
      <point x="222" y="50" type="curve" smooth="yes"/>
      <point x="158" y="50"/>
      <point x="99" y="100"/>
      <point x="99" y="181" type="curve" smooth="yes"/>
      <point x="99" y="281"/>
      <point x="169" y="342"/>
      <point x="251" y="342" type="curve" smooth="yes"/>
      <point x="298" y="342"/>
      <point x="335" y="331"/>
      <point x="370" y="312" type="curve"/>
      <point x="370" y="141" type="line"/>
      <point x="330" y="80"/>
      <point x="278" y="50"/>
    </contour>
  </outline>
</glyph>
<glyph name="t" format="1">
  <advance width="354"/>
  <unicode hex="0074"/>
  <outline>
    <contour>
      <point x="279" y="0" type="curve" smooth="yes"/>
      <point x="292" y="0"/>
      <point x="304" y="11"/>
      <point x="304" y="25" type="curve" smooth="yes"/>
      <point x="304" y="38"/>
      <point x="293" y="50"/>
      <point x="279" y="50" type="curve" smooth="yes"/>
      <point x="200" y="52"/>
      <point x="159" y="81"/>
      <point x="159" y="142" type="curve" smooth="yes"/>
      <point x="159" y="342" type="line"/>
      <point x="292" y="342" type="line" smooth="yes"/>
      <point x="306" y="342"/>
      <point x="317" y="354"/>
      <point x="317" y="367" type="curve" smooth="yes"/>
      <point x="317" y="381"/>
      <point x="306" y="392"/>
      <point x="292" y="392" type="curve" smooth="yes"/>
      <point x="159" y="392" type="line"/>
      <point x="159" y="493" type="line" smooth="yes"/>
      <point x="159" y="507"/>
      <point x="148" y="518"/>
      <point x="134" y="518" type="curve" smooth="yes"/>
      <point x="121" y="518"/>
      <point x="109" y="507"/>
      <point x="109" y="493" type="curve" smooth="yes"/>
      <point x="109" y="392" type="line"/>
      <point x="46" y="392" type="line" smooth="yes"/>
      <point x="33" y="392"/>
      <point x="21" y="381"/>
      <point x="21" y="367" type="curve" smooth="yes"/>
      <point x="21" y="354"/>
      <point x="33" y="342"/>
      <point x="46" y="342" type="curve" smooth="yes"/>
      <point x="109" y="342" type="line"/>
      <point x="109" y="142" type="line" smooth="yes"/>
      <point x="109" y="55"/>
      <point x="156" y="2"/>
    </contour>
  </outline>
</glyph>
<glyph name="u" format="1">
  <advance width="497"/>
  <unicode hex="0075"/>
  <outline>
    <contour>
      <point x="387" y="0" type="curve" smooth="yes"/>
      <point x="401" y="0"/>
      <point x="412" y="11"/>
      <point x="412" y="25" type="curve" smooth="yes"/>
      <point x="412" y="367" type="line" smooth="yes"/>
      <point x="412" y="381"/>
      <point x="401" y="392"/>
      <point x="387" y="392" type="curve" smooth="yes"/>
      <point x="374" y="392"/>
      <point x="362" y="381"/>
      <point x="362" y="367" type="curve" smooth="yes"/>
      <point x="362" y="146" type="line"/>
      <point x="325" y="95"/>
      <point x="267" y="50"/>
      <point x="212" y="50" type="curve" smooth="yes"/>
      <point x="159" y="50"/>
      <point x="125" y="85"/>
      <point x="125" y="167" type="curve" smooth="yes"/>
      <point x="125" y="367" type="line" smooth="yes"/>
      <point x="125" y="381"/>
      <point x="114" y="392"/>
      <point x="100" y="392" type="curve" smooth="yes"/>
      <point x="87" y="392"/>
      <point x="75" y="381"/>
      <point x="75" y="367" type="curve" smooth="yes"/>
      <point x="75" y="167" type="line" smooth="yes"/>
      <point x="75" y="39"/>
      <point x="137" y="0"/>
      <point x="212" y="0" type="curve" smooth="yes"/>
      <point x="264" y="0"/>
      <point x="318" y="29"/>
      <point x="362" y="70" type="curve"/>
      <point x="362" y="25" type="line" smooth="yes"/>
      <point x="362" y="12"/>
      <point x="374" y="0"/>
    </contour>
  </outline>
</glyph>
<glyph name="w" format="1">
  <advance width="699"/>
  <unicode hex="0077"/>
  <outline>
    <contour>
      <point x="499" y="-4" type="curve" smooth="yes"/>
      <point x="501" y="-4" type="line" smooth="yes"/>
      <point x="510" y="-4"/>
      <point x="520" y="3"/>
      <point x="524" y="11" type="curve" smooth="yes"/>
      <point x="563" y="98"/>
      <point x="612" y="222"/>
      <point x="646" y="340" type="curve" smooth="yes"/>
      <point x="649" y="351"/>
      <point x="652" y="362"/>
      <point x="652" y="365" type="curve" smooth="yes"/>
      <point x="652" y="378"/>
      <point x="642" y="390"/>
      <point x="627" y="390" type="curve" smooth="yes"/>
      <point x="616" y="390"/>
      <point x="606" y="383"/>
      <point x="603" y="372" type="curve" smooth="yes"/>
      <point x="576" y="273"/>
      <point x="534" y="161"/>
      <point x="498" y="77" type="curve"/>
      <point x="459" y="156"/>
      <point x="415" y="254"/>
      <point x="377" y="364" type="curve" smooth="yes"/>
      <point x="373" y="375"/>
      <point x="362" y="381"/>
      <point x="352" y="381" type="curve" smooth="yes"/>
      <point x="346" y="381" type="line" smooth="yes"/>
      <point x="336" y="381"/>
      <point x="325" y="374"/>
      <point x="322" y="363" type="curve" smooth="yes"/>
      <point x="294" y="273"/>
      <point x="242" y="162"/>
      <point x="201" y="78" type="curve"/>
      <point x="166" y="159"/>
      <point x="128" y="263"/>
      <point x="97" y="373" type="curve" smooth="yes"/>
      <point x="94" y="384"/>
      <point x="84" y="391"/>
      <point x="73" y="391" type="curve" smooth="yes"/>
      <point x="58" y="391"/>
      <point x="48" y="379"/>
      <point x="48" y="366" type="curve" smooth="yes"/>
      <point x="48" y="361"/>
      <point x="54" y="337"/>
      <point x="70" y="286" type="curve" smooth="yes"/>
      <point x="103" y="182"/>
      <point x="135" y="98"/>
      <point x="176" y="11" type="curve" smooth="yes"/>
      <point x="180" y="3"/>
      <point x="190" y="-3"/>
      <point x="199" y="-3" type="curve" smooth="yes"/>
      <point x="201" y="-3" type="line" smooth="yes"/>
      <point x="210" y="-3"/>
      <point x="219" y="3"/>
      <point x="223" y="11" type="curve" smooth="yes"/>
      <point x="259" y="83"/>
      <point x="313" y="193"/>
      <point x="350" y="291" type="curve"/>
      <point x="392" y="180"/>
      <point x="437" y="84"/>
      <point x="477" y="9" type="curve" smooth="yes"/>
      <point x="481" y="2"/>
      <point x="491" y="-4"/>
    </contour>
  </outline>
</glyph>
<glyph name="braceleft" format="1">
  <advance width="412"/>
  <unicode hex="007B"/>
  <outline>
    <contour>
      <point x="290" y="-100" type="curve" smooth="yes"/>
      <point x="310" y="-100" type="line" smooth="yes"/>
      <point x="324" y="-100"/>
      <point x="335" y="-89"/>
      <point x="335" y="-75" type="curve" smooth="yes"/>
      <point x="335" y="-62"/>
      <point x="324" y="-50"/>
      <point x="310" y="-50" type="curve" smooth="yes"/>
      <point x="290" y="-50" type="line" smooth="yes"/>
      <point x="215" y="-50"/>
      <point x="157" y="-15"/>
      <point x="157" y="33" type="curve" smooth="yes"/>
      <point x="157" y="98"/>
      <point x="224" y="133"/>
      <point x="224" y="191" type="curve" smooth="yes"/>
      <point x="224" y="220"/>
      <point x="210" y="246"/>
      <point x="175" y="265" type="curve"/>
      <point x="210" y="284"/>
      <point x="224" y="310"/>
      <point x="224" y="339" type="curve" smooth="yes"/>
      <point x="224" y="397"/>
      <point x="157" y="432"/>
      <point x="157" y="497" type="curve" smooth="yes"/>
      <point x="157" y="545"/>
      <point x="215" y="580"/>
      <point x="290" y="580" type="curve" smooth="yes"/>
      <point x="310" y="580" type="line" smooth="yes"/>
      <point x="324" y="580"/>
      <point x="335" y="592"/>
      <point x="335" y="605" type="curve" smooth="yes"/>
      <point x="335" y="619"/>
      <point x="324" y="630"/>
      <point x="310" y="630" type="curve" smooth="yes"/>
      <point x="290" y="630" type="line" smooth="yes"/>
      <point x="169" y="630"/>
      <point x="107" y="563"/>
      <point x="107" y="497" type="curve" smooth="yes"/>
      <point x="107" y="432"/>
      <point x="174" y="397"/>
      <point x="174" y="339" type="curve" smooth="yes"/>
      <point x="174" y="311"/>
      <point x="138" y="299"/>
      <point x="93" y="293" type="curve" smooth="yes"/>
      <point x="82" y="291"/>
      <point x="72" y="280"/>
      <point x="72" y="268" type="curve" smooth="yes"/>
      <point x="72" y="262" type="line" smooth="yes"/>
      <point x="72" y="250"/>
      <point x="82" y="239"/>
      <point x="93" y="237" type="curve" smooth="yes"/>
      <point x="138" y="231"/>
      <point x="174" y="219"/>
      <point x="174" y="191" type="curve" smooth="yes"/>
      <point x="174" y="133"/>
      <point x="107" y="98"/>
      <point x="107" y="33" type="curve" smooth="yes"/>
      <point x="107" y="-33"/>
      <point x="169" y="-100"/>
    </contour>
  </outline>
</glyph>
<glyph name="section" format="1">
  <advance width="525"/>
  <unicode hex="00A7"/>
  <outline>
    <contour>
      <point x="263" y="132" type="curve" smooth="yes"/>
      <point x="258" y="132" type="line"/>
      <point x="153" y="150"/>
      <point x="122" y="185"/>
      <point x="122" y="223" type="curve" smooth="yes"/>
      <point x="122" y="273"/>
      <point x="169" y="298"/>
      <point x="233" y="298" type="curve" smooth="yes"/>
      <point x="255" y="298" type="line"/>
      <point x="358" y="278"/>
      <point x="402" y="249"/>
      <point x="402" y="203" type="curve" smooth="yes"/>
      <point x="402" y="158"/>
      <point x="347" y="132"/>
    </contour>
    <contour>
      <point x="253" y="-123" type="curve" smooth="yes"/>
      <point x="395" y="-123"/>
      <point x="442" y="-58"/>
      <point x="442" y="3" type="curve" smooth="yes"/>
      <point x="442" y="43"/>
      <point x="428" y="75"/>
      <point x="375" y="99" type="curve"/>
      <point x="432" y="122"/>
      <point x="452" y="162"/>
      <point x="452" y="203" type="curve" smooth="yes"/>
      <point x="452" y="263"/>
      <point x="417" y="321"/>
      <point x="268" y="347" type="curve" smooth="yes"/>
      <point x="164" y="365"/>
      <point x="132" y="395"/>
      <point x="132" y="430" type="curve" smooth="yes"/>
      <point x="132" y="466"/>
      <point x="183" y="491"/>
      <point x="243" y="491" type="curve" smooth="yes"/>
      <point x="289" y="491"/>
      <point x="325" y="486"/>
      <point x="355" y="477" type="curve" smooth="yes"/>
      <point x="382" y="469"/>
      <point x="389" y="467"/>
      <point x="392" y="467" type="curve" smooth="yes"/>
      <point x="407" y="467"/>
      <point x="418" y="480"/>
      <point x="418" y="491" type="curve" smooth="yes"/>
      <point x="418" y="502"/>
      <point x="411" y="513"/>
      <point x="401" y="516" type="curve" smooth="yes"/>
      <point x="351" y="532"/>
      <point x="315" y="541"/>
      <point x="243" y="541" type="curve" smooth="yes"/>
      <point x="133" y="541"/>
      <point x="82" y="482"/>
      <point x="82" y="430" type="curve" smooth="yes"/>
      <point x="82" y="398"/>
      <point x="88" y="360"/>
      <point x="143" y="331" type="curve"/>
      <point x="96" y="310"/>
      <point x="72" y="271"/>
      <point x="72" y="223" type="curve" smooth="yes"/>
      <point x="72" y="173"/>
      <point x="87" y="110"/>
      <point x="250" y="82" type="curve"/>
      <point x="343" y="66"/>
      <point x="392" y="50"/>
      <point x="392" y="3" type="curve" smooth="yes"/>
      <point x="392" y="-42"/>
      <point x="339" y="-73"/>
      <point x="253" y="-73" type="curve" smooth="yes"/>
      <point x="197" y="-73"/>
      <point x="144" y="-62"/>
      <point x="103" y="-44" type="curve" smooth="yes"/>
      <point x="94" y="-40"/>
      <point x="88" y="-38"/>
      <point x="84" y="-38" type="curve" smooth="yes"/>
      <point x="70" y="-38"/>
      <point x="59" y="-49"/>
      <point x="59" y="-63" type="curve" smooth="yes"/>
      <point x="59" y="-72"/>
      <point x="64" y="-82"/>
      <point x="74" y="-86" type="curve" smooth="yes"/>
      <point x="129" y="-111"/>
      <point x="189" y="-123"/>
    </contour>
  </outline>
</glyph>
<glyph name="acute" format="1">
  <advance width="490"/>
  <unicode hex="00B4"/>
  <outline>
    <contour>
      <point x="303" y="584" type="curve" smooth="yes"/>
      <point x="307" y="588"/>
      <point x="309" y="594"/>
      <point x="309" y="599" type="curve" smooth="yes"/>
      <point x="309" y="610"/>
      <point x="298" y="621"/>
      <point x="287" y="621" type="curve" smooth="yes"/>
      <point x="281" y="621"/>
      <point x="275" y="619"/>
      <point x="271" y="614" type="curve" smooth="yes"/>
      <point x="242" y="583"/>
      <point x="215" y="550"/>
      <point x="189" y="519" type="curve" smooth="yes"/>
      <point x="186" y="515"/>
      <point x="184" y="510"/>
      <point x="184" y="505" type="curve" smooth="yes"/>
      <point x="184" y="495"/>
      <point x="194" y="483"/>
      <point x="206" y="483" type="curve" smooth="yes"/>
      <point x="212" y="483"/>
      <point x="219" y="486"/>
      <point x="223" y="491" type="curve" smooth="yes"/>
      <point x="249" y="522"/>
      <point x="276" y="553"/>
    </contour>
  </outline>
</glyph>
<glyph name="onequarter" format="1">
  <advance width="714"/>
  <unicode hex="00BC"/>
  <outline>
    <contour>
      <point x="511" y="499" type="line" smooth="yes"/>
      <point x="513" y="502"/>
      <point x="514" y="506"/>
      <point x="514" y="509" type="curve" smooth="yes"/>
      <point x="514" y="521"/>
      <point x="504" y="532"/>
      <point x="493" y="532" type="curve" smooth="yes"/>
      <point x="485" y="532"/>
      <point x="477" y="528"/>
      <point x="473" y="521" type="curve" smooth="yes"/>
      <point x="190" y="36" type="line" smooth="yes"/>
      <point x="188" y="33"/>
      <point x="187" y="29"/>
      <point x="187" y="26" type="curve" smooth="yes"/>
      <point x="187" y="14"/>
      <point x="197" y="3"/>
      <point x="208" y="3" type="curve" smooth="yes"/>
      <point x="216" y="3"/>
      <point x="224" y="7"/>
      <point x="228" y="14" type="curve" smooth="yes"/>
    </contour>
    <contour>
      <point x="555" y="4" type="curve" smooth="yes"/>
      <point x="567" y="4"/>
      <point x="577" y="14"/>
      <point x="577" y="26" type="curve" smooth="yes"/>
      <point x="577" y="79" type="line"/>
      <point x="617" y="79" type="line" smooth="yes"/>
      <point x="629" y="79"/>
      <point x="639" y="89"/>
      <point x="639" y="101" type="curve" smooth="yes"/>
      <point x="639" y="113"/>
      <point x="629" y="123"/>
      <point x="617" y="123" type="curve" smooth="yes"/>
      <point x="577" y="123" type="line"/>
      <point x="577" y="286" type="line" smooth="yes"/>
      <point x="577" y="298"/>
      <point x="567" y="308"/>
      <point x="555" y="308" type="curve" smooth="yes"/>
      <point x="547" y="308"/>
      <point x="540" y="302"/>
      <point x="535" y="296" type="curve" smooth="yes"/>
      <point x="380" y="115" type="line" smooth="yes"/>
      <point x="377" y="111"/>
      <point x="375" y="106"/>
      <point x="375" y="101" type="curve" smooth="yes"/>
      <point x="375" y="91"/>
      <point x="383" y="79"/>
      <point x="398" y="79" type="curve" smooth="yes"/>
      <point x="533" y="79" type="line"/>
      <point x="533" y="26" type="line" smooth="yes"/>
      <point x="533" y="14"/>
      <point x="543" y="4"/>
    </contour>
    <contour>
      <point x="533" y="123" type="line"/>
      <point x="445" y="123" type="line"/>
      <point x="533" y="226" type="line"/>
    </contour>
    <contour>
      <point x="202" y="237" type="curve" smooth="yes"/>
      <point x="214" y="237"/>
      <point x="224" y="247"/>
      <point x="224" y="259" type="curve" smooth="yes"/>
      <point x="224" y="520" type="line" smooth="yes"/>
      <point x="224" y="530"/>
      <point x="213" y="542"/>
      <point x="202" y="542" type="curve" smooth="yes"/>
      <point x="199" y="542"/>
      <point x="195" y="541"/>
      <point x="192" y="539" type="curve" smooth="yes"/>
      <point x="110" y="495" type="line" smooth="yes"/>
      <point x="102" y="491"/>
      <point x="98" y="484"/>
      <point x="98" y="476" type="curve" smooth="yes"/>
      <point x="98" y="466"/>
      <point x="109" y="454"/>
      <point x="120" y="454" type="curve" smooth="yes"/>
      <point x="123" y="454"/>
      <point x="127" y="455"/>
      <point x="130" y="457" type="curve" smooth="yes"/>
      <point x="180" y="484" type="line"/>
      <point x="180" y="259" type="line" smooth="yes"/>
      <point x="180" y="247"/>
      <point x="190" y="237"/>
    </contour>
  </outline>
</glyph>
<glyph name="ccedilla" format="1">
  <advance width="436"/>
  <unicode hex="00E7"/>
  <outline>
    <contour>
      <point x="330" y="331" type="curve" smooth="yes"/>
      <point x="341" y="328"/>
      <point x="345" y="327"/>
      <point x="348" y="327" type="curve" smooth="yes"/>
      <point x="361" y="327"/>
      <point x="374" y="339"/>
      <point x="374" y="351" type="curve" smooth="yes"/>
      <point x="374" y="362"/>
      <point x="368" y="372"/>
      <point x="357" y="376" type="curve" smooth="yes"/>
      <point x="328" y="386"/>
      <point x="292" y="392"/>
      <point x="260" y="392" type="curve" smooth="yes"/>
      <point x="126" y="392"/>
      <point x="49" y="305"/>
      <point x="49" y="187" type="curve" smooth="yes"/>
      <point x="49" y="84"/>
      <point x="122" y="0"/>
      <point x="259" y="0" type="curve" smooth="yes"/>
      <point x="304" y="0"/>
      <point x="340" y="9"/>
      <point x="370" y="21" type="curve" smooth="yes"/>
      <point x="380" y="25"/>
      <point x="386" y="34"/>
      <point x="386" y="44" type="curve" smooth="yes"/>
      <point x="386" y="57"/>
      <point x="374" y="69"/>
      <point x="361" y="69" type="curve" smooth="yes"/>
      <point x="358" y="69"/>
      <point x="355" y="68"/>
      <point x="341" y="63" type="curve" smooth="yes"/>
      <point x="325" y="57"/>
      <point x="296" y="50"/>
      <point x="259" y="50" type="curve" smooth="yes"/>
      <point x="158" y="50"/>
      <point x="99" y="108"/>
      <point x="99" y="187" type="curve" smooth="yes"/>
      <point x="99" y="277"/>
      <point x="158" y="342"/>
      <point x="260" y="342" type="curve" smooth="yes"/>
      <point x="284" y="342"/>
      <point x="307" y="338"/>
    </contour>
    <contour>
      <point x="280" y="-138" type="curve" smooth="yes"/>
      <point x="285" y="-134"/>
      <point x="287" y="-128"/>
      <point x="287" y="-122" type="curve" smooth="yes"/>
      <point x="287" y="-110"/>
      <point x="276" y="-100"/>
      <point x="265" y="-100" type="curve" smooth="yes"/>
      <point x="259" y="-100"/>
      <point x="254" y="-102"/>
      <point x="250" y="-106" type="curve" smooth="yes"/>
      <point x="223" y="-132"/>
      <point x="172" y="-182"/>
      <point x="148" y="-206" type="curve" smooth="yes"/>
      <point x="143" y="-211"/>
      <point x="142" y="-216"/>
      <point x="142" y="-222" type="curve" smooth="yes"/>
      <point x="142" y="-235"/>
      <point x="153" y="-244"/>
      <point x="164" y="-244" type="curve" smooth="yes"/>
      <point x="170" y="-244"/>
      <point x="176" y="-242"/>
      <point x="180" y="-238" type="curve" smooth="yes"/>
      <point x="202" y="-215"/>
      <point x="253" y="-164"/>
    </contour>
  </outline>
</glyph>
<glyph name="iacute" format="1">
  <advance width="232"/>
  <unicode hex="00ED"/>
  <outline>
    <contour>
      <point x="214" y="584" type="curve" smooth="yes"/>
      <point x="218" y="588"/>
      <point x="220" y="594"/>
      <point x="220" y="599" type="curve" smooth="yes"/>
      <point x="220" y="610"/>
      <point x="209" y="621"/>
      <point x="198" y="621" type="curve" smooth="yes"/>
      <point x="192" y="621"/>
      <point x="186" y="619"/>
      <point x="182" y="614" type="curve" smooth="yes"/>
      <point x="153" y="583"/>
      <point x="126" y="550"/>
      <point x="100" y="519" type="curve" smooth="yes"/>
      <point x="97" y="515"/>
      <point x="95" y="510"/>
      <point x="95" y="505" type="curve" smooth="yes"/>
      <point x="95" y="495"/>
      <point x="105" y="483"/>
      <point x="117" y="483" type="curve" smooth="yes"/>
      <point x="123" y="483"/>
      <point x="130" y="486"/>
      <point x="134" y="491" type="curve" smooth="yes"/>
      <point x="160" y="522"/>
      <point x="187" y="553"/>
    </contour>
    <contour>
      <point x="91" y="25" type="line" smooth="yes"/>
      <point x="91" y="12"/>
      <point x="102" y="0"/>
      <point x="116" y="0" type="curve" smooth="yes"/>
      <point x="129" y="0"/>
      <point x="141" y="11"/>
      <point x="141" y="25" type="curve" smooth="yes"/>
      <point x="141" y="367" type="line" smooth="yes"/>
      <point x="141" y="381"/>
      <point x="130" y="392"/>
      <point x="116" y="392" type="curve" smooth="yes"/>
      <point x="103" y="392"/>
      <point x="91" y="381"/>
      <point x="91" y="367" type="curve" smooth="yes"/>
    </contour>
  </outline>
</glyph>
<glyph name="eth" format="1">
  <advance width="484"/>
  <unicode hex="00F0"/>
  <outline>
    <contour>
      <point x="231" y="-4" type="curve" smooth="yes"/>
      <point x="352" y="-4"/>
      <point x="428" y="73"/>
      <point x="428" y="214" type="curve" smooth="yes"/>
      <point x="428" y="299"/>
      <point x="398" y="385"/>
      <point x="308" y="482" type="curve"/>
      <point x="360" y="513" type="line" smooth="yes"/>
      <point x="367" y="517"/>
      <point x="371" y="524"/>
      <point x="371" y="532" type="curve" smooth="yes"/>
      <point x="371" y="544"/>
      <point x="362" y="554"/>
      <point x="349" y="554" type="curve" smooth="yes"/>
      <point x="345" y="554"/>
      <point x="341" y="553"/>
      <point x="338" y="551" type="curve" smooth="yes"/>
      <point x="277" y="514" type="line"/>
      <point x="261" y="529"/>
      <point x="244" y="544"/>
      <point x="225" y="560" type="curve" smooth="yes"/>
      <point x="221" y="564"/>
      <point x="215" y="566"/>
      <point x="209" y="566" type="curve" smooth="yes"/>
      <point x="197" y="566"/>
      <point x="184" y="555"/>
      <point x="184" y="541" type="curve" smooth="yes"/>
      <point x="184" y="534"/>
      <point x="187" y="527"/>
      <point x="193" y="522" type="curve" smooth="yes"/>
      <point x="207" y="510"/>
      <point x="220" y="499"/>
      <point x="232" y="487" type="curve"/>
      <point x="174" y="452" type="line" smooth="yes"/>
      <point x="167" y="448"/>
      <point x="163" y="441"/>
      <point x="163" y="433" type="curve" smooth="yes"/>
      <point x="163" y="420"/>
      <point x="173" y="411"/>
      <point x="185" y="411" type="curve" smooth="yes"/>
      <point x="189" y="411"/>
      <point x="193" y="412"/>
      <point x="196" y="414" type="curve"/>
      <point x="265" y="455" type="line"/>
      <point x="309" y="409"/>
      <point x="338" y="366"/>
      <point x="356" y="323" type="curve"/>
      <point x="321" y="341"/>
      <point x="277" y="354"/>
      <point x="232" y="354" type="curve" smooth="yes"/>
      <point x="125" y="354"/>
      <point x="46" y="282"/>
      <point x="46" y="172" type="curve" smooth="yes"/>
      <point x="46" y="77"/>
      <point x="114" y="-4"/>
    </contour>
    <contour>
      <point x="231" y="46" type="curve" smooth="yes"/>
      <point x="148" y="46"/>
      <point x="96" y="103"/>
      <point x="96" y="172" type="curve" smooth="yes"/>
      <point x="96" y="252"/>
      <point x="155" y="304"/>
      <point x="232" y="304" type="curve" smooth="yes"/>
      <point x="291" y="304"/>
      <point x="350" y="276"/>
      <point x="376" y="251" type="curve"/>
      <point x="378" y="236"/>
      <point x="378" y="227"/>
      <point x="378" y="214" type="curve" smooth="yes"/>
      <point x="378" y="109"/>
      <point x="324" y="46"/>
    </contour>
  </outline>
</glyph>
<glyph name="abreve" format="1">
  <advance width="450"/>
  <unicode hex="0103"/>
  <outline>
    <contour>
      <point x="146" y="591" type="curve" smooth="yes"/>
      <point x="142" y="597"/>
      <point x="135" y="601"/>
      <point x="128" y="601" type="curve" smooth="yes"/>
      <point x="116" y="601"/>
      <point x="106" y="591"/>
      <point x="106" y="579" type="curve" smooth="yes"/>
      <point x="106" y="575"/>
      <point x="107" y="571"/>
      <point x="110" y="567" type="curve" smooth="yes"/>
      <point x="138" y="524"/>
      <point x="181" y="496"/>
      <point x="230" y="496" type="curve" smooth="yes"/>
      <point x="285" y="496"/>
      <point x="320" y="523"/>
      <point x="348" y="567" type="curve" smooth="yes"/>
      <point x="350" y="570"/>
      <point x="351" y="574"/>
      <point x="351" y="578" type="curve" smooth="yes"/>
      <point x="351" y="591"/>
      <point x="343" y="601"/>
      <point x="330" y="601" type="curve" smooth="yes"/>
      <point x="322" y="601"/>
      <point x="315" y="598"/>
      <point x="310" y="591" type="curve" smooth="yes"/>
      <point x="292" y="561"/>
      <point x="269" y="540"/>
      <point x="230" y="540" type="curve" smooth="yes"/>
      <point x="195" y="540"/>
      <point x="166" y="562"/>
    </contour>
    <contour>
      <point x="172" y="50" type="curve" smooth="yes"/>
      <point x="123" y="50"/>
      <point x="100" y="79"/>
      <point x="100" y="106" type="curve" smooth="yes"/>
      <point x="100" y="124"/>
      <point x="105" y="140"/>
      <point x="121" y="156" type="curve" smooth="yes"/>
      <point x="148" y="183"/>
      <point x="191" y="197"/>
      <point x="255" y="197" type="curve" smooth="yes"/>
      <point x="277" y="197"/>
      <point x="299" y="196"/>
      <point x="324" y="194" type="curve"/>
      <point x="324" y="129" type="line"/>
      <point x="282" y="75"/>
      <point x="236" y="50"/>
    </contour>
    <contour>
      <point x="368" y="9" type="curve" smooth="yes"/>
      <point x="373" y="4"/>
      <point x="379" y="1"/>
      <point x="386" y="1" type="curve" smooth="yes"/>
      <point x="399" y="1"/>
      <point x="411" y="12"/>
      <point x="411" y="26" type="curve" smooth="yes"/>
      <point x="411" y="32"/>
      <point x="409" y="38"/>
      <point x="404" y="43" type="curve" smooth="yes"/>
      <point x="384" y="65"/>
      <point x="374" y="93"/>
      <point x="374" y="139" type="curve" smooth="yes"/>
      <point x="374" y="230" type="line" smooth="yes"/>
      <point x="374" y="326"/>
      <point x="324" y="392"/>
      <point x="215" y="392" type="curve" smooth="yes"/>
      <point x="179" y="392"/>
      <point x="137" y="382"/>
      <point x="114" y="375" type="curve" smooth="yes"/>
      <point x="103" y="371"/>
      <point x="97" y="361"/>
      <point x="97" y="350" type="curve" smooth="yes"/>
      <point x="97" y="338"/>
      <point x="110" y="326"/>
      <point x="123" y="326" type="curve" smooth="yes"/>
      <point x="126" y="326"/>
      <point x="134" y="328"/>
      <point x="142" y="331" type="curve" smooth="yes"/>
      <point x="157" y="336"/>
      <point x="188" y="342"/>
      <point x="215" y="342" type="curve" smooth="yes"/>
      <point x="284" y="342"/>
      <point x="318" y="304"/>
      <point x="323" y="244" type="curve"/>
      <point x="299" y="246"/>
      <point x="277" y="247"/>
      <point x="255" y="247" type="curve" smooth="yes"/>
      <point x="173" y="247"/>
      <point x="119" y="225"/>
      <point x="85" y="192" type="curve" smooth="yes"/>
      <point x="59" y="167"/>
      <point x="50" y="138"/>
      <point x="50" y="106" type="curve" smooth="yes"/>
      <point x="50" y="61"/>
      <point x="79" y="0"/>
      <point x="172" y="0" type="curve" smooth="yes"/>
      <point x="237" y="0"/>
      <point x="289" y="21"/>
      <point x="334" y="65" type="curve"/>
      <point x="342" y="42"/>
      <point x="353" y="25"/>
    </contour>
  </outline>
</glyph>
<glyph name="Dcaron" format="1">
  <advance width="612"/>
  <unicode hex="010E"/>
  <outline>
    <contour>
      <point x="279" y="633"/>
      <point x="284" y="635"/>
      <point x="288" y="638" type="curve" smooth="yes"/>
      <point x="321" y="662"/>
      <point x="356" y="686"/>
      <point x="384" y="707" type="curve" smooth="yes"/>
      <point x="390" y="712"/>
      <point x="393" y="719"/>
      <point x="393" y="726" type="curve" smooth="yes"/>
      <point x="393" y="737"/>
      <point x="383" y="747"/>
      <point x="370" y="747" type="curve" smooth="yes"/>
      <point x="366" y="747"/>
      <point x="362" y="746"/>
      <point x="358" y="743" type="curve" smooth="yes"/>
      <point x="333" y="724"/>
      <point x="302" y="703"/>
      <point x="271" y="681" type="curve"/>
      <point x="241" y="703"/>
      <point x="210" y="724"/>
      <point x="185" y="743" type="curve" smooth="yes"/>
      <point x="181" y="746"/>
      <point x="177" y="747"/>
      <point x="173" y="747" type="curve" smooth="yes"/>
      <point x="159" y="747"/>
      <point x="150" y="737"/>
      <point x="150" y="726" type="curve" smooth="yes"/>
      <point x="150" y="719"/>
      <point x="153" y="712"/>
      <point x="159" y="707" type="curve" smooth="yes"/>
      <point x="187" y="686"/>
      <point x="221" y="662"/>
      <point x="255" y="638" type="curve" smooth="yes"/>
      <point x="259" y="635"/>
      <point x="264" y="633"/>
      <point x="270" y="633" type="curve" smooth="yes"/>
      <point x="274" y="633" type="line" smooth="yes"/>
    </contour>
    <contour>
      <point x="299" y="0" type="line" smooth="yes"/>
      <point x="451" y="0"/>
      <point x="551" y="118"/>
      <point x="551" y="268" type="curve" smooth="yes"/>
      <point x="551" y="426"/>
      <point x="431" y="535"/>
      <point x="299" y="535" type="curve" smooth="yes"/>
      <point x="123" y="535" type="line" smooth="yes"/>
      <point x="109" y="535"/>
      <point x="98" y="524"/>
      <point x="98" y="510" type="curve" smooth="yes"/>
      <point x="98" y="25" type="line" smooth="yes"/>
      <point x="98" y="11"/>
      <point x="109" y="0"/>
      <point x="123" y="0" type="curve" smooth="yes"/>
    </contour>
    <contour>
      <point x="299" y="485" type="line" smooth="yes"/>
      <point x="407" y="485"/>
      <point x="501" y="394"/>
      <point x="501" y="268" type="curve" smooth="yes"/>
      <point x="501" y="148"/>
      <point x="423" y="50"/>
      <point x="299" y="50" type="curve" smooth="yes"/>
      <point x="148" y="50" type="line"/>
      <point x="148" y="485" type="line"/>
    </contour>
  </outline>
</glyph>
<glyph name="Emacron" format="1">
  <advance width="487"/>
  <unicode hex="0112"/>
  <outline>
    <contour>
      <point x="361" y="664" type="line" smooth="yes"/>
      <point x="373" y="664"/>
      <point x="383" y="674"/>
      <point x="383" y="686" type="curve" smooth="yes"/>
      <point x="383" y="698"/>
      <point x="373" y="708"/>
      <point x="361" y="708" type="curve" smooth="yes"/>
      <point x="132" y="708" type="line" smooth="yes"/>
      <point x="120" y="708"/>
      <point x="110" y="698"/>
      <point x="110" y="686" type="curve" smooth="yes"/>
      <point x="110" y="674"/>
      <point x="120" y="664"/>
      <point x="132" y="664" type="curve" smooth="yes"/>
    </contour>
    <contour>
      <point x="123" y="0" type="curve" smooth="yes"/>
      <point x="402" y="0" type="line" smooth="yes"/>
      <point x="416" y="0"/>
      <point x="427" y="12"/>
      <point x="427" y="25" type="curve" smooth="yes"/>
      <point x="427" y="39"/>
      <point x="416" y="50"/>
      <point x="402" y="50" type="curve" smooth="yes"/>
      <point x="148" y="50" type="line"/>
      <point x="148" y="261" type="line"/>
      <point x="357" y="261" type="line" smooth="yes"/>
      <point x="371" y="261"/>
      <point x="382" y="273"/>
      <point x="382" y="286" type="curve" smooth="yes"/>
      <point x="382" y="300"/>
      <point x="371" y="311"/>
      <point x="357" y="311" type="curve" smooth="yes"/>
      <point x="148" y="311" type="line"/>
      <point x="148" y="485" type="line"/>
      <point x="400" y="485" type="line" smooth="yes"/>
      <point x="414" y="485"/>
      <point x="425" y="497"/>
      <point x="425" y="510" type="curve" smooth="yes"/>
      <point x="425" y="524"/>
      <point x="414" y="535"/>
      <point x="400" y="535" type="curve"/>
      <point x="120" y="535" type="line" smooth="yes"/>
      <point x="108" y="535"/>
      <point x="98" y="523"/>
      <point x="98" y="510" type="curve" smooth="yes"/>
      <point x="98" y="25" type="line" smooth="yes"/>
      <point x="98" y="12"/>
      <point x="110" y="0"/>
    </contour>
  </outline>
</glyph>
<glyph name="Eogonek" format="1">
  <advance width="487"/>
  <unicode hex="0118"/>
  <outline>
    <contour>
      <point x="420" y="-221" type="curve" smooth="yes"/>
      <point x="432" y="-221"/>
      <point x="442" y="-211"/>
      <point x="442" y="-199" type="curve" smooth="yes"/>
      <point x="442" y="-187"/>
      <point x="432" y="-177"/>
      <point x="420" y="-177" type="curve" smooth="yes"/>
      <point x="371" y="-177"/>
      <point x="324" y="-167"/>
      <point x="324" y="-139" type="curve" smooth="yes"/>
      <point x="324" y="-115"/>
      <point x="343" y="-88"/>
      <point x="419" y="-18" type="curve" smooth="yes"/>
      <point x="423" y="-14"/>
      <point x="427" y="-4"/>
      <point x="427" y="5" type="curve" smooth="yes"/>
      <point x="427" y="29" type="line" smooth="yes"/>
      <point x="427" y="39"/>
      <point x="416" y="50"/>
      <point x="402" y="50" type="curve" smooth="yes"/>
      <point x="148" y="50" type="line"/>
      <point x="148" y="261" type="line"/>
      <point x="357" y="261" type="line" smooth="yes"/>
      <point x="371" y="261"/>
      <point x="382" y="273"/>
      <point x="382" y="286" type="curve" smooth="yes"/>
      <point x="382" y="300"/>
      <point x="371" y="311"/>
      <point x="357" y="311" type="curve" smooth="yes"/>
      <point x="148" y="311" type="line"/>
      <point x="148" y="485" type="line"/>
      <point x="400" y="485" type="line" smooth="yes"/>
      <point x="414" y="485"/>
      <point x="425" y="497"/>
      <point x="425" y="510" type="curve" smooth="yes"/>
      <point x="425" y="524"/>
      <point x="414" y="535"/>
      <point x="400" y="535" type="curve"/>
      <point x="120" y="535" type="line" smooth="yes"/>
      <point x="108" y="535"/>
      <point x="98" y="523"/>
      <point x="98" y="510" type="curve" smooth="yes"/>
      <point x="98" y="25" type="line" smooth="yes"/>
      <point x="98" y="12"/>
      <point x="110" y="0"/>
      <point x="123" y="0" type="curve" smooth="yes"/>
      <point x="373" y="0" type="line"/>
      <point x="373" y="-4" type="line"/>
      <point x="292" y="-78"/>
      <point x="280" y="-110"/>
      <point x="280" y="-139" type="curve" smooth="yes"/>
      <point x="280" y="-181"/>
      <point x="313" y="-221"/>
    </contour>
  </outline>
</glyph>
<glyph name="iogonek" format="1">
  <advance width="232"/>
  <unicode hex="012F"/>
  <outline>
    <contour>
      <point x="116" y="600" type="curve" smooth="yes"/>
      <point x="92" y="600"/>
      <point x="73" y="580"/>
      <point x="73" y="549" type="curve" smooth="yes"/>
      <point x="73" y="519"/>
      <point x="93" y="500"/>
      <point x="117" y="500" type="curve" smooth="yes"/>
      <point x="139" y="500"/>
      <point x="159" y="517"/>
      <point x="159" y="549" type="curve" smooth="yes"/>
      <point x="159" y="580"/>
      <point x="140" y="600"/>
    </contour>
    <contour>
      <point x="128" y="-221" type="curve" smooth="yes"/>
      <point x="140" y="-221"/>
      <point x="150" y="-211"/>
      <point x="150" y="-199" type="curve" smooth="yes"/>
      <point x="150" y="-187"/>
      <point x="140" y="-177"/>
      <point x="128" y="-177" type="curve" smooth="yes"/>
      <point x="79" y="-177"/>
      <point x="32" y="-167"/>
      <point x="32" y="-139" type="curve" smooth="yes"/>
      <point x="32" y="-115"/>
      <point x="56" y="-89"/>
      <point x="127" y="-31" type="curve" smooth="yes"/>
      <point x="136" y="-24"/>
      <point x="141" y="-14"/>
      <point x="141" y="-4" type="curve" smooth="yes"/>
      <point x="141" y="367" type="line" smooth="yes"/>
      <point x="141" y="381"/>
      <point x="130" y="392"/>
      <point x="116" y="392" type="curve" smooth="yes"/>
      <point x="103" y="392"/>
      <point x="91" y="381"/>
      <point x="91" y="367" type="curve" smooth="yes"/>
      <point x="91" y="-4" type="line"/>
      <point x="0" y="-78"/>
      <point x="-12" y="-110"/>
      <point x="-12" y="-139" type="curve" smooth="yes"/>
      <point x="-12" y="-181"/>
      <point x="21" y="-221"/>
    </contour>
  </outline>
</glyph>
<glyph name="Uhungarumlaut" format="1">
  <advance width="616"/>
  <unicode hex="0170"/>
  <outline>
    <contour>
      <point x="478" y="729" type="curve" smooth="yes"/>
      <point x="480" y="732"/>
      <point x="481" y="736"/>
      <point x="481" y="740" type="curve" smooth="yes"/>
      <point x="481" y="752"/>
      <point x="473" y="763"/>
      <point x="460" y="763" type="curve" smooth="yes"/>
      <point x="452" y="763"/>
      <point x="444" y="760"/>
      <point x="440" y="753" type="curve" smooth="yes"/>
      <point x="417" y="716"/>
      <point x="404" y="687"/>
      <point x="395" y="667" type="curve" smooth="yes"/>
      <point x="390" y="656"/>
      <point x="388" y="649"/>
      <point x="388" y="645" type="curve" smooth="yes"/>
      <point x="388" y="633"/>
      <point x="398" y="624"/>
      <point x="410" y="624" type="curve" smooth="yes"/>
      <point x="419" y="624"/>
      <point x="427" y="630"/>
      <point x="430" y="638" type="curve" smooth="yes"/>
      <point x="442" y="667"/>
      <point x="456" y="696"/>
    </contour>
    <contour>
      <point x="273" y="729" type="curve" smooth="yes"/>
      <point x="275" y="732"/>
      <point x="276" y="736"/>
      <point x="276" y="740" type="curve" smooth="yes"/>
      <point x="276" y="753"/>
      <point x="268" y="763"/>
      <point x="255" y="763" type="curve" smooth="yes"/>
      <point x="247" y="763"/>
      <point x="239" y="760"/>
      <point x="235" y="753" type="curve" smooth="yes"/>
      <point x="212" y="716"/>
      <point x="197" y="687"/>
      <point x="189" y="668" type="curve" smooth="yes"/>
      <point x="183" y="655"/>
      <point x="183" y="648"/>
      <point x="183" y="645" type="curve" smooth="yes"/>
      <point x="183" y="635"/>
      <point x="192" y="624"/>
      <point x="205" y="624" type="curve" smooth="yes"/>
      <point x="214" y="624"/>
      <point x="222" y="630"/>
      <point x="225" y="638" type="curve" smooth="yes"/>
      <point x="237" y="667"/>
      <point x="251" y="696"/>
    </contour>
    <contour>
      <point x="136" y="510" type="line" smooth="yes"/>
      <point x="136" y="524"/>
      <point x="125" y="535"/>
      <point x="111" y="535" type="curve" smooth="yes"/>
      <point x="98" y="535"/>
      <point x="86" y="524"/>
      <point x="86" y="510" type="curve" smooth="yes"/>
      <point x="86" y="214" type="line" smooth="yes"/>
      <point x="86" y="71"/>
      <point x="176" y="-9"/>
      <point x="306" y="-9" type="curve" smooth="yes"/>
      <point x="449" y="-9"/>
      <point x="530" y="71"/>
      <point x="530" y="217" type="curve" smooth="yes"/>
      <point x="530" y="510" type="line" smooth="yes"/>
      <point x="530" y="524"/>
      <point x="519" y="535"/>
      <point x="505" y="535" type="curve" smooth="yes"/>
      <point x="492" y="535"/>
      <point x="480" y="524"/>
      <point x="480" y="510" type="curve" smooth="yes"/>
      <point x="480" y="217" type="line" smooth="yes"/>
      <point x="480" y="103"/>
      <point x="417" y="41"/>
      <point x="306" y="41" type="curve" smooth="yes"/>
      <point x="206" y="41"/>
      <point x="136" y="103"/>
      <point x="136" y="214" type="curve" smooth="yes"/>
    </contour>
  </outline>
</glyph>
<glyph name="zdotaccent" format="1">
  <advance width="444"/>
  <unicode hex="017C"/>
  <outline>
    <contour>
      <point x="220" y="596" type="curve" smooth="yes"/>
      <point x="198" y="596"/>
      <point x="179" y="576"/>
      <point x="179" y="548" type="curve" smooth="yes"/>
      <point x="179" y="520"/>
      <point x="197" y="502"/>
      <point x="220" y="502" type="curve" smooth="yes"/>
      <point x="241" y="502"/>
      <point x="259" y="518"/>
      <point x="259" y="548" type="curve" smooth="yes"/>
      <point x="259" y="578"/>
      <point x="240" y="596"/>
    </contour>
    <contour>
      <point x="71" y="0" type="curve" smooth="yes"/>
      <point x="372" y="0" type="line" smooth="yes"/>
      <point x="386" y="0"/>
      <point x="397" y="12"/>
      <point x="397" y="25" type="curve" smooth="yes"/>
      <point x="397" y="39"/>
      <point x="386" y="50"/>
      <point x="372" y="50" type="curve" smooth="yes"/>
      <point x="124" y="50" type="line"/>
      <point x="380" y="351" type="line" smooth="yes"/>
      <point x="384" y="355"/>
      <point x="386" y="361"/>
      <point x="386" y="366" type="curve" smooth="yes"/>
      <point x="386" y="381"/>
      <point x="374" y="392"/>
      <point x="361" y="392" type="curve" smooth="yes"/>
      <point x="86" y="392" type="line" smooth="yes"/>
      <point x="73" y="392"/>
      <point x="61" y="381"/>
      <point x="61" y="367" type="curve" smooth="yes"/>
      <point x="61" y="354"/>
      <point x="73" y="342"/>
      <point x="86" y="342" type="curve" smooth="yes"/>
      <point x="307" y="342" type="line"/>
      <point x="58" y="49" type="line" smooth="yes"/>
      <point x="49" y="39"/>
      <point x="46" y="33"/>
      <point x="46" y="25" type="curve" smooth="yes"/>
      <point x="46" y="12"/>
      <point x="58" y="0"/>
    </contour>
  </outline>
</glyph>
<glyph name="macroncmb" format="1">
  <advance width="0"/>
  <unicode hex="0304"/>
  <outline>
    <contour>
      <point x="92" y="517" type="line" smooth="yes"/>
      <point x="104" y="517"/>
      <point x="114" y="527"/>
      <point x="114" y="539" type="curve" smooth="yes"/>
      <point x="114" y="551"/>
      <point x="104" y="561"/>
      <point x="92" y="561" type="curve" smooth="yes"/>
      <point x="-109" y="561" type="line" smooth="yes"/>
      <point x="-121" y="561"/>
      <point x="-131" y="551"/>
      <point x="-131" y="539" type="curve" smooth="yes"/>
      <point x="-131" y="527"/>
      <point x="-121" y="517"/>
      <point x="-109" y="517" type="curve" smooth="yes"/>
    </contour>
  </outline>
</glyph>
<glyph name="commaaccent" format="1">
  <advance width="230"/>
  <unicode hex="0326"/>
  <outline>
    <contour>
      <point x="150" y="-91" type="curve" smooth="yes"/>
      <point x="147" y="-84"/>
      <point x="139" y="-80"/>
      <point x="131" y="-80" type="curve" smooth="yes"/>
      <point x="118" y="-80"/>
      <point x="109" y="-89"/>
      <point x="109" y="-102" type="curve" smooth="yes"/>
      <point x="109" y="-106"/>
      <point x="110" y="-109"/>
      <point x="112" y="-113" type="curve" smooth="yes"/>
      <point x="116" y="-120"/>
      <point x="118" y="-130"/>
      <point x="118" y="-139" type="curve" smooth="yes"/>
      <point x="118" y="-170"/>
      <point x="91" y="-196"/>
      <point x="54" y="-213" type="curve" smooth="yes"/>
      <point x="46" y="-217"/>
      <point x="41" y="-225"/>
      <point x="41" y="-233" type="curve" smooth="yes"/>
      <point x="41" y="-245"/>
      <point x="52" y="-255"/>
      <point x="63" y="-255" type="curve" smooth="yes"/>
      <point x="66" y="-255"/>
      <point x="69" y="-254"/>
      <point x="72" y="-253" type="curve" smooth="yes"/>
      <point x="129" y="-226"/>
      <point x="162" y="-184"/>
      <point x="162" y="-139" type="curve" smooth="yes"/>
      <point x="162" y="-122"/>
      <point x="158" y="-106"/>
    </contour>
  </outline>
</glyph>
<glyph name="knKHA" format="1">
  <advance width="774"/>
  <unicode hex="0C96"/>
  <outline>
    <contour>
      <point x="193" y="311" type="curve" smooth="yes"/>
      <point x="161" y="311"/>
      <point x="134" y="334"/>
      <point x="134" y="365" type="curve" smooth="yes"/>
      <point x="134" y="395"/>
      <point x="161" y="424"/>
      <point x="208" y="424" type="curve" smooth="yes"/>
      <point x="225" y="424"/>
      <point x="241" y="422"/>
      <point x="256" y="419" type="curve"/>
      <point x="260" y="407"/>
      <point x="265" y="391"/>
      <point x="265" y="373" type="curve" smooth="yes"/>
      <point x="265" y="335"/>
      <point x="235" y="311"/>
    </contour>
    <contour>
      <point x="208" y="42" type="curve" smooth="yes"/>
      <point x="153" y="42"/>
      <point x="123" y="67"/>
      <point x="123" y="97" type="curve" smooth="yes"/>
      <point x="123" y="124"/>
      <point x="153" y="152"/>
      <point x="197" y="152" type="curve" smooth="yes"/>
      <point x="247" y="152"/>
      <point x="295" y="130"/>
      <point x="339" y="98" type="curve"/>
      <point x="307" y="65"/>
      <point x="263" y="42"/>
    </contour>
    <contour>
      <point x="556" y="0" type="curve" smooth="yes"/>
      <point x="639" y="0"/>
      <point x="707" y="56"/>
      <point x="707" y="175" type="curve" smooth="yes"/>
      <point x="707" y="281"/>
      <point x="654" y="379"/>
      <point x="584" y="449" type="curve" smooth="yes"/>
      <point x="580" y="453"/>
      <point x="574" y="456"/>
      <point x="568" y="456" type="curve" smooth="yes"/>
      <point x="556" y="456"/>
      <point x="545" y="446"/>
      <point x="545" y="433" type="curve" smooth="yes"/>
      <point x="545" y="427"/>
      <point x="548" y="421"/>
      <point x="552" y="417" type="curve" smooth="yes"/>
      <point x="613" y="357"/>
      <point x="661" y="269"/>
      <point x="661" y="175" type="curve" smooth="yes"/>
      <point x="661" y="92"/>
      <point x="617" y="46"/>
      <point x="556" y="46" type="curve" smooth="yes"/>
      <point x="500" y="46"/>
      <point x="454" y="65"/>
      <point x="403" y="107" type="curve"/>
      <point x="428" y="148"/>
      <point x="442" y="195"/>
      <point x="442" y="238" type="curve" smooth="yes"/>
      <point x="442" y="366"/>
      <point x="347" y="470"/>
      <point x="208" y="470" type="curve" smooth="yes"/>
      <point x="123" y="470"/>
      <point x="88" y="413"/>
      <point x="88" y="365" type="curve" smooth="yes"/>
      <point x="88" y="310"/>
      <point x="133" y="265"/>
      <point x="193" y="265" type="curve" smooth="yes"/>
      <point x="267" y="265"/>
      <point x="311" y="311"/>
      <point x="311" y="373" type="curve" smooth="yes"/>
      <point x="311" y="381"/>
      <point x="310" y="389"/>
      <point x="309" y="397" type="curve"/>
      <point x="363" y="364"/>
      <point x="396" y="305"/>
      <point x="396" y="238" type="curve" smooth="yes"/>
      <point x="396" y="205"/>
      <point x="386" y="168"/>
      <point x="366" y="135" type="curve"/>
      <point x="314" y="173"/>
      <point x="256" y="198"/>
      <point x="197" y="198" type="curve" smooth="yes"/>
      <point x="115" y="198"/>
      <point x="77" y="140"/>
      <point x="77" y="97" type="curve" smooth="yes"/>
      <point x="77" y="51"/>
      <point x="107" y="-4"/>
      <point x="208" y="-4" type="curve" smooth="yes"/>
      <point x="278" y="-4"/>
      <point x="335" y="26"/>
      <point x="374" y="70" type="curve"/>
      <point x="435" y="21"/>
      <point x="491" y="0"/>
    </contour>
  </outline>
</glyph>
<glyph name="knsignI" format="1">
  <advance width="0"/>
  <unicode hex="0CBF"/>
  <outline>
    <contour>
      <point x="-358" y="283" type="curve" smooth="yes"/>
      <point x="-223" y="283"/>
      <point x="-152" y="364"/>
      <point x="-152" y="469" type="curve" smooth="yes"/>
      <point x="-152" y="553"/>
      <point x="-216" y="634"/>
      <point x="-297" y="634" type="curve" smooth="yes"/>
      <point x="-368" y="634"/>
      <point x="-411" y="582"/>
      <point x="-411" y="526" type="curve" smooth="yes"/>
      <point x="-411" y="468"/>
      <point x="-365" y="423"/>
      <point x="-303" y="423" type="curve" smooth="yes"/>
      <point x="-263" y="423"/>
      <point x="-230" y="435"/>
      <point x="-198" y="465" type="curve"/>
      <point x="-200" y="386"/>
      <point x="-259" y="329"/>
      <point x="-358" y="329" type="curve" smooth="yes"/>
      <point x="-370" y="329"/>
      <point x="-381" y="318"/>
      <point x="-381" y="306" type="curve" smooth="yes"/>
      <point x="-381" y="294"/>
      <point x="-370" y="283"/>
    </contour>
    <contour>
      <point x="-303" y="469" type="curve" smooth="yes"/>
      <point x="-337" y="469"/>
      <point x="-365" y="492"/>
      <point x="-365" y="526" type="curve" smooth="yes"/>
      <point x="-365" y="560"/>
      <point x="-338" y="588"/>
      <point x="-297" y="588" type="curve" smooth="yes"/>
      <point x="-256" y="588"/>
      <point x="-224" y="559"/>
      <point x="-209" y="521" type="curve"/>
      <point x="-238" y="485"/>
      <point x="-266" y="469"/>
    </contour>
  </outline>
</glyph>
<glyph name="knsignU" format="1">
  <advance width="316"/>
  <unicode hex="0CC1"/>
  <outline>
    <contour>
      <point x="-64" y="150" type="curve" smooth="yes"/>
      <point x="-69" y="157"/>
      <point x="-77" y="161"/>
      <point x="-85" y="161" type="curve" smooth="yes"/>
      <point x="-99" y="161"/>
      <point x="-107" y="150"/>
      <point x="-107" y="137" type="curve" smooth="yes"/>
      <point x="-107" y="133"/>
      <point x="-106" y="129"/>
      <point x="-104" y="126" type="curve" smooth="yes"/>
      <point x="-48" y="36"/>
      <point x="10" y="0"/>
      <point x="87" y="0" type="curve" smooth="yes"/>
      <point x="193" y="0"/>
      <point x="249" y="69"/>
      <point x="249" y="169" type="curve" smooth="yes"/>
      <point x="249" y="255"/>
      <point x="201" y="357"/>
      <point x="137" y="427" type="curve" smooth="yes"/>
      <point x="133" y="432"/>
      <point x="127" y="435"/>
      <point x="120" y="435" type="curve" smooth="yes"/>
      <point x="107" y="435"/>
      <point x="97" y="425"/>
      <point x="97" y="412" type="curve" smooth="yes"/>
      <point x="97" y="407"/>
      <point x="99" y="401"/>
      <point x="103" y="397" type="curve" smooth="yes"/>
      <point x="159" y="335"/>
      <point x="203" y="245"/>
      <point x="203" y="169" type="curve" smooth="yes"/>
      <point x="203" y="97"/>
      <point x="165" y="46"/>
      <point x="87" y="46" type="curve" smooth="yes"/>
      <point x="24" y="46"/>
      <point x="-20" y="78"/>
    </contour>
  </outline>
</glyph>
<glyph name="endash" format="1">
  <advance width="506"/>
  <unicode hex="2013"/>
  <outline>
    <contour>
      <point x="109" y="245" type="line" smooth="yes"/>
      <point x="96" y="245"/>
      <point x="84" y="234"/>
      <point x="84" y="220" type="curve" smooth="yes"/>
      <point x="84" y="207"/>
      <point x="96" y="195"/>
      <point x="109" y="195" type="curve" smooth="yes"/>
      <point x="397" y="195" type="line" smooth="yes"/>
      <point x="411" y="195"/>
      <point x="422" y="207"/>
      <point x="422" y="220" type="curve" smooth="yes"/>
      <point x="422" y="234"/>
      <point x="411" y="245"/>
      <point x="397" y="245" type="curve" smooth="yes"/>
    </contour>
  </outline>
</glyph>
<glyph name="uni2126" format="1">
  <advance width="630"/>
  <unicode hex="2126"/>
  <outline>
    <contour>
      <point x="240" y="0" type="line" smooth="yes"/>
      <point x="253" y="0"/>
      <point x="265" y="12"/>
      <point x="265" y="25" type="curve" smooth="yes"/>
      <point x="265" y="32"/>
      <point x="262" y="38"/>
      <point x="257" y="43" type="curve" smooth="yes"/>
      <point x="188" y="110"/>
      <point x="116" y="194"/>
      <point x="116" y="300" type="curve" smooth="yes"/>
      <point x="116" y="409"/>
      <point x="192" y="494"/>
      <point x="317" y="494" type="curve" smooth="yes"/>
      <point x="431" y="494"/>
      <point x="514" y="408"/>
      <point x="514" y="300" type="curve" smooth="yes"/>
      <point x="514" y="197"/>
      <point x="449" y="110"/>
      <point x="387" y="42" type="curve" smooth="yes"/>
      <point x="382" y="37"/>
      <point x="380" y="31"/>
      <point x="380" y="25" type="curve" smooth="yes"/>
      <point x="380" y="11"/>
      <point x="393" y="0"/>
      <point x="405" y="0" type="curve" smooth="yes"/>
      <point x="558" y="0" type="line" smooth="yes"/>
      <point x="572" y="0"/>
      <point x="583" y="12"/>
      <point x="583" y="25" type="curve" smooth="yes"/>
      <point x="583" y="39"/>
      <point x="572" y="50"/>
      <point x="558" y="50" type="curve" smooth="yes"/>
      <point x="459" y="50" type="line"/>
      <point x="517" y="120"/>
      <point x="564" y="205"/>
      <point x="564" y="300" type="curve" smooth="yes"/>
      <point x="564" y="436"/>
      <point x="461" y="544"/>
      <point x="317" y="544" type="curve" smooth="yes"/>
      <point x="160" y="544"/>
      <point x="66" y="435"/>
      <point x="66" y="300" type="curve" smooth="yes"/>
      <point x="66" y="201"/>
      <point x="119" y="119"/>
      <point x="181" y="50" type="curve"/>
      <point x="87" y="50" type="line" smooth="yes"/>
      <point x="74" y="50"/>
      <point x="62" y="39"/>
      <point x="62" y="25" type="curve" smooth="yes"/>
      <point x="62" y="12"/>
      <point x="74" y="0"/>
      <point x="87" y="0" type="curve" smooth="yes"/>
    </contour>
  </outline>
</glyph>
<glyph name="knBU" format="1">
  <advance width="1067"/>
  <outline>
    <contour>
      <point x="838" y="0" type="curve" smooth="yes"/>
      <point x="944" y="0"/>
      <point x="1000" y="69"/>
      <point x="1000" y="169" type="curve" smooth="yes"/>
      <point x="1000" y="255"/>
      <point x="952" y="357"/>
      <point x="888" y="427" type="curve" smooth="yes"/>
      <point x="884" y="432"/>
      <point x="878" y="435"/>
      <point x="871" y="435" type="curve" smooth="yes"/>
      <point x="858" y="435"/>
      <point x="848" y="425"/>
      <point x="848" y="412" type="curve" smooth="yes"/>
      <point x="848" y="407"/>
      <point x="850" y="401"/>
      <point x="854" y="397" type="curve" smooth="yes"/>
      <point x="910" y="335"/>
      <point x="954" y="245"/>
      <point x="954" y="169" type="curve" smooth="yes"/>
      <point x="954" y="97"/>
      <point x="916" y="46"/>
      <point x="838" y="46" type="curve" smooth="yes"/>
      <point x="775" y="46"/>
      <point x="731" y="78"/>
      <point x="687" y="150" type="curve"/>
      <point x="686" y="152"/>
      <point x="684" y="155"/>
      <point x="682" y="158" type="curve"/>
      <point x="683" y="166"/>
      <point x="683" y="169"/>
      <point x="683" y="175" type="curve" smooth="yes"/>
      <point x="683" y="282"/>
      <point x="629" y="383"/>
      <point x="538" y="451" type="curve" smooth="yes"/>
      <point x="534" y="454"/>
      <point x="529" y="456"/>
      <point x="524" y="456" type="curve" smooth="yes"/>
      <point x="511" y="456"/>
      <point x="501" y="445"/>
      <point x="501" y="433" type="curve" smooth="yes"/>
      <point x="501" y="426"/>
      <point x="504" y="419"/>
      <point x="510" y="415" type="curve" smooth="yes"/>
      <point x="589" y="355"/>
      <point x="637" y="268"/>
      <point x="637" y="175" type="curve" smooth="yes"/>
      <point x="637" y="94"/>
      <point x="594" y="46"/>
      <point x="536" y="46" type="curve" smooth="yes"/>
      <point x="478" y="46"/>
      <point x="438" y="76"/>
      <point x="404" y="135" type="curve" smooth="yes"/>
      <point x="400" y="142"/>
      <point x="391" y="147"/>
      <point x="384" y="147" type="curve" smooth="yes"/>
      <point x="379" y="147" type="line" smooth="yes"/>
      <point x="372" y="147"/>
      <point x="363" y="142"/>
      <point x="359" y="136" type="curve" smooth="yes"/>
      <point x="323" y="77"/>
      <point x="281" y="46"/>
      <point x="222" y="46" type="curve" smooth="yes"/>
      <point x="165" y="46"/>
      <point x="133" y="81"/>
      <point x="133" y="125" type="curve" smooth="yes"/>
      <point x="133" y="167"/>
      <point x="162" y="202"/>
      <point x="203" y="235" type="curve" smooth="yes"/>
      <point x="269" y="288"/>
      <point x="291" y="327"/>
      <point x="291" y="371" type="curve" smooth="yes"/>
      <point x="291" y="426"/>
      <point x="251" y="471"/>
      <point x="183" y="471" type="curve" smooth="yes"/>
      <point x="140" y="471"/>
      <point x="105" y="451"/>
      <point x="75" y="417" type="curve" smooth="yes"/>
      <point x="71" y="413"/>
      <point x="69" y="407"/>
      <point x="69" y="402" type="curve" smooth="yes"/>
      <point x="69" y="389"/>
      <point x="80" y="379"/>
      <point x="92" y="379" type="curve" smooth="yes"/>
      <point x="99" y="379"/>
      <point x="105" y="382"/>
      <point x="109" y="387" type="curve" smooth="yes"/>
      <point x="129" y="409"/>
      <point x="154" y="425"/>
      <point x="183" y="425" type="curve" smooth="yes"/>
      <point x="219" y="425"/>
      <point x="245" y="402"/>
      <point x="245" y="371" type="curve" smooth="yes"/>
      <point x="245" y="337"/>
      <point x="223" y="310"/>
      <point x="175" y="271" type="curve" smooth="yes"/>
      <point x="120" y="226"/>
      <point x="87" y="179"/>
      <point x="87" y="125" type="curve" smooth="yes"/>
      <point x="87" y="59"/>
      <point x="133" y="0"/>
      <point x="222" y="0" type="curve" smooth="yes"/>
      <point x="288" y="0"/>
      <point x="338" y="27"/>
      <point x="381" y="86" type="curve"/>
      <point x="422" y="27"/>
      <point x="471" y="0"/>
      <point x="536" y="0" type="curve" smooth="yes"/>
      <point x="593" y="0"/>
      <point x="645" y="31"/>
      <point x="669" y="93" type="curve"/>
      <point x="719" y="27"/>
      <point x="771" y="0"/>
    </contour>
  </outline>
</glyph>
<glyph name="knDA.base" format="1">
  <advance width="736"/>
  <outline>
    <contour>
      <point x="519" y="0" type="curve" smooth="yes"/>
      <point x="602" y="0"/>
      <point x="668" y="59"/>
      <point x="668" y="168" type="curve" smooth="yes"/>
      <point x="668" y="254"/>
      <point x="608" y="346"/>
      <point x="514" y="410" type="curve"/>
      <point x="526" y="410"/>
      <point x="537" y="421"/>
      <point x="537" y="433" type="curve" smooth="yes"/>
      <point x="537" y="445"/>
      <point x="526" y="456"/>
      <point x="514" y="456" type="curve" smooth="yes"/>
      <point x="111" y="456" type="line" smooth="yes"/>
      <point x="99" y="456"/>
      <point x="88" y="445"/>
      <point x="88" y="433" type="curve" smooth="yes"/>
      <point x="88" y="421"/>
      <point x="99" y="410"/>
      <point x="111" y="410" type="curve" smooth="yes"/>
      <point x="231" y="410" type="line"/>
      <point x="141" y="346"/>
      <point x="83" y="254"/>
      <point x="83" y="168" type="curve" smooth="yes"/>
      <point x="83" y="59"/>
      <point x="146" y="0"/>
      <point x="231" y="0" type="curve" smooth="yes"/>
      <point x="294" y="0"/>
      <point x="337" y="27"/>
      <point x="373" y="83" type="curve"/>
      <point x="410" y="25"/>
      <point x="452" y="0"/>
    </contour>
    <contour>
      <point x="519" y="46" type="curve" smooth="yes"/>
      <point x="459" y="46"/>
      <point x="427" y="75"/>
      <point x="395" y="135" type="curve" smooth="yes"/>
      <point x="391" y="142"/>
      <point x="383" y="147"/>
      <point x="375" y="147" type="curve" smooth="yes"/>
      <point x="370" y="147" type="line" smooth="yes"/>
      <point x="362" y="147"/>
      <point x="353" y="141"/>
      <point x="350" y="135" type="curve" smooth="yes"/>
      <point x="320" y="77"/>
      <point x="287" y="46"/>
      <point x="231" y="46" type="curve" smooth="yes"/>
      <point x="170" y="46"/>
      <point x="129" y="93"/>
      <point x="129" y="168" type="curve" smooth="yes"/>
      <point x="129" y="262"/>
      <point x="211" y="358"/>
      <point x="323" y="410" type="curve"/>
      <point x="421" y="410" type="line"/>
      <point x="536" y="358"/>
      <point x="622" y="261"/>
      <point x="622" y="168" type="curve" smooth="yes"/>
      <point x="622" y="93"/>
      <point x="580" y="46"/>
    </contour>
  </outline>
</glyph>
<glyph name="knDHI" format="1">
  <advance width="729"/>
  <outline>
    <contour>
      <point x="516" y="0" type="curve" smooth="yes"/>
      <point x="599" y="0"/>
      <point x="665" y="59"/>
      <point x="665" y="168" type="curve" smooth="yes"/>
      <point x="665" y="202"/>
      <point x="657" y="235"/>
      <point x="643" y="266" type="curve"/>
      <point x="643" y="277" type="line" smooth="yes"/>
      <point x="643" y="397"/>
      <point x="614" y="449"/>
      <point x="560" y="503" type="curve" smooth="yes"/>
      <point x="506" y="557"/>
      <point x="422" y="589"/>
      <point x="329" y="589" type="curve" smooth="yes"/>
      <point x="148" y="589"/>
      <point x="100" y="507"/>
      <point x="100" y="453" type="curve" smooth="yes"/>
      <point x="100" y="413"/>
      <point x="118" y="383"/>
      <point x="159" y="352" type="curve"/>
      <point x="110" y="302"/>
      <point x="80" y="236"/>
      <point x="80" y="168" type="curve" smooth="yes"/>
      <point x="80" y="59"/>
      <point x="143" y="0"/>
      <point x="228" y="0" type="curve" smooth="yes"/>
      <point x="291" y="0"/>
      <point x="334" y="27"/>
      <point x="370" y="83" type="curve"/>
      <point x="407" y="25"/>
      <point x="449" y="0"/>
    </contour>
    <contour>
      <point x="371" y="444" type="curve" smooth="yes"/>
      <point x="305" y="444"/>
      <point x="243" y="421"/>
      <point x="194" y="383" type="curve"/>
      <point x="163" y="405"/>
      <point x="146" y="425"/>
      <point x="146" y="453" type="curve" smooth="yes"/>
      <point x="146" y="497"/>
      <point x="210" y="543"/>
      <point x="329" y="543" type="curve" smooth="yes"/>
      <point x="408" y="543"/>
      <point x="482" y="517"/>
      <point x="528" y="471" type="curve" smooth="yes"/>
      <point x="563" y="436"/>
      <point x="584" y="401"/>
      <point x="593" y="342" type="curve"/>
      <point x="538" y="403"/>
      <point x="458" y="444"/>
    </contour>
    <contour>
      <point x="371" y="398" type="curve" smooth="yes"/>
      <point x="502" y="398"/>
      <point x="619" y="287"/>
      <point x="619" y="168" type="curve" smooth="yes"/>
      <point x="619" y="93"/>
      <point x="577" y="46"/>
      <point x="516" y="46" type="curve" smooth="yes"/>
      <point x="456" y="46"/>
      <point x="424" y="75"/>
      <point x="392" y="135" type="curve" smooth="yes"/>
      <point x="388" y="142"/>
      <point x="380" y="147"/>
      <point x="372" y="147" type="curve" smooth="yes"/>
      <point x="367" y="147" type="line" smooth="yes"/>
      <point x="359" y="147"/>
      <point x="350" y="141"/>
      <point x="347" y="135" type="curve" smooth="yes"/>
      <point x="317" y="77"/>
      <point x="284" y="46"/>
      <point x="228" y="46" type="curve" smooth="yes"/>
      <point x="167" y="46"/>
      <point x="126" y="93"/>
      <point x="126" y="168" type="curve" smooth="yes"/>
      <point x="126" y="288"/>
      <point x="238" y="398"/>
    </contour>
    <contour>
      <point x="392" y="-93" type="line" smooth="yes"/>
      <point x="392" y="-81"/>
      <point x="381" y="-70"/>
      <point x="369" y="-70" type="curve" smooth="yes"/>
      <point x="357" y="-70"/>
      <point x="346" y="-81"/>
      <point x="346" y="-93" type="curve" smooth="yes"/>
      <point x="346" y="-196" type="line" smooth="yes"/>
      <point x="346" y="-208"/>
      <point x="357" y="-219"/>
      <point x="369" y="-219" type="curve" smooth="yes"/>
      <point x="381" y="-219"/>
      <point x="392" y="-208"/>
      <point x="392" y="-196" type="curve" smooth="yes"/>
    </contour>
  </outline>
</glyph>
<glyph name="knGHAc2" format="1">
  <advance width="119"/>
  <outline>
    <contour>
      <point x="32" y="-329" type="curve" smooth="yes"/>
      <point x="93" y="-329"/>
      <point x="131" y="-289"/>
      <point x="137" y="-227" type="curve"/>
      <point x="159" y="-240"/>
      <point x="181" y="-246"/>
      <point x="205" y="-246" type="curve" smooth="yes"/>
      <point x="258" y="-246"/>
      <point x="291" y="-209"/>
      <point x="291" y="-159" type="curve" smooth="yes"/>
      <point x="291" y="-141"/>
      <point x="289" y="-125"/>
      <point x="284" y="-109" type="curve" smooth="yes"/>
      <point x="282" y="-100"/>
      <point x="273" y="-94"/>
      <point x="264" y="-94" type="curve" smooth="yes"/>
      <point x="254" y="-94"/>
      <point x="243" y="-104"/>
      <point x="243" y="-115" type="curve" smooth="yes"/>
      <point x="243" y="-125"/>
      <point x="249" y="-133"/>
      <point x="249" y="-159" type="curve" smooth="yes"/>
      <point x="249" y="-185"/>
      <point x="232" y="-204"/>
      <point x="205" y="-204" type="curve" smooth="yes"/>
      <point x="179" y="-204"/>
      <point x="157" y="-195"/>
      <point x="136" y="-173" type="curve"/>
      <point x="129" y="-113"/>
      <point x="106" y="-34"/>
      <point x="75" y="51" type="curve" smooth="yes"/>
      <point x="72" y="60"/>
      <point x="63" y="65"/>
      <point x="55" y="65" type="curve" smooth="yes"/>
      <point x="42" y="65"/>
      <point x="34" y="54"/>
      <point x="34" y="44" type="curve" smooth="yes"/>
      <point x="34" y="41"/>
      <point x="35" y="37"/>
      <point x="42" y="17" type="curve" smooth="yes"/>
      <point x="71" y="-62"/>
      <point x="96" y="-151"/>
      <point x="96" y="-209" type="curve" smooth="yes"/>
      <point x="96" y="-253"/>
      <point x="75" y="-287"/>
      <point x="32" y="-287" type="curve" smooth="yes"/>
      <point x="0" y="-287"/>
      <point x="-30" y="-269"/>
      <point x="-61" y="-233" type="curve"/>
      <point x="-65" y="-229"/>
      <point x="-71" y="-226"/>
      <point x="-77" y="-226" type="curve" smooth="yes"/>
      <point x="-77" y="-226"/>
      <point x="-79" y="-226"/>
      <point x="-79" y="-226" type="curve" smooth="yes"/>
      <point x="-85" y="-226"/>
      <point x="-92" y="-229"/>
      <point x="-96" y="-233" type="curve"/>
      <point x="-124" y="-265"/>
      <point x="-153" y="-289"/>
      <point x="-191" y="-289" type="curve" smooth="yes"/>
      <point x="-225" y="-289"/>
      <point x="-246" y="-270"/>
      <point x="-246" y="-246" type="curve" smooth="yes"/>
      <point x="-246" y="-223"/>
      <point x="-231" y="-202"/>
      <point x="-206" y="-189" type="curve" smooth="yes"/>
      <point x="-199" y="-185"/>
      <point x="-195" y="-179"/>
      <point x="-195" y="-171" type="curve" smooth="yes"/>
      <point x="-195" y="-162"/>
      <point x="-204" y="-150"/>
      <point x="-216" y="-150" type="curve" smooth="yes"/>
      <point x="-219" y="-150"/>
      <point x="-223" y="-151"/>
      <point x="-226" y="-153" type="curve" smooth="yes"/>
      <point x="-267" y="-175"/>
      <point x="-288" y="-209"/>
      <point x="-288" y="-246" type="curve" smooth="yes"/>
      <point x="-288" y="-288"/>
      <point x="-259" y="-331"/>
      <point x="-191" y="-331" type="curve" smooth="yes"/>
      <point x="-147" y="-331"/>
      <point x="-112" y="-310"/>
      <point x="-78" y="-276" type="curve"/>
      <point x="-41" y="-313"/>
      <point x="-5" y="-329"/>
    </contour>
    <contour>
      <point x="-57" y="-362" type="line" smooth="yes"/>
      <point x="-57" y="-351"/>
      <point x="-67" y="-341"/>
      <point x="-78" y="-341" type="curve" smooth="yes"/>
      <point x="-89" y="-341"/>
      <point x="-99" y="-351"/>
      <point x="-99" y="-362" type="curve" smooth="yes"/>
      <point x="-99" y="-428" type="line" smooth="yes"/>
      <point x="-99" y="-439"/>
      <point x="-89" y="-449"/>
      <point x="-78" y="-449" type="curve" smooth="yes"/>
      <point x="-67" y="-449"/>
      <point x="-57" y="-439"/>
      <point x="-57" y="-428" type="curve" smooth="yes"/>
    </contour>
  </outline>
</glyph>
<glyph name="knH" format="1">
  <advance width="1020"/>
  <outline>
    <contour>
      <point x="870" y="269" type="curve" smooth="yes"/>
      <point x="832" y="269"/>
      <point x="799" y="300"/>
      <point x="799" y="345" type="curve" smooth="yes"/>
      <point x="799" y="365"/>
      <point x="802" y="387"/>
      <point x="812" y="410" type="curve"/>
      <point x="831" y="410" type="line" smooth="yes"/>
      <point x="899" y="410"/>
      <point x="933" y="372"/>
      <point x="933" y="333" type="curve" smooth="yes"/>
      <point x="933" y="293"/>
      <point x="908" y="269"/>
    </contour>
    <contour>
      <point x="372" y="410" type="line"/>
      <point x="372" y="240" type="line"/>
      <point x="343" y="276"/>
      <point x="296" y="303"/>
      <point x="235" y="303" type="curve" smooth="yes"/>
      <point x="136" y="303"/>
      <point x="74" y="229"/>
      <point x="74" y="150" type="curve" smooth="yes"/>
      <point x="74" y="68"/>
      <point x="135" y="-4"/>
      <point x="235" y="-4" type="curve" smooth="yes"/>
      <point x="316" y="-4"/>
      <point x="374" y="40"/>
      <point x="395" y="98" type="curve"/>
      <point x="417" y="40"/>
      <point x="476" y="-4"/>
      <point x="553" y="-4" type="curve" smooth="yes"/>
      <point x="658" y="-4"/>
      <point x="716" y="69"/>
      <point x="716" y="150" type="curve" smooth="yes"/>
      <point x="716" y="229"/>
      <point x="657" y="303"/>
      <point x="553" y="303" type="curve" smooth="yes"/>
      <point x="494" y="303"/>
      <point x="447" y="275"/>
      <point x="418" y="239" type="curve"/>
      <point x="418" y="410" type="line"/>
      <point x="762" y="410" type="line"/>
      <point x="755" y="387"/>
      <point x="753" y="365"/>
      <point x="753" y="345" type="curve" smooth="yes"/>
      <point x="753" y="270"/>
      <point x="808" y="223"/>
      <point x="870" y="223" type="curve" smooth="yes"/>
      <point x="934" y="223"/>
      <point x="979" y="265"/>
      <point x="979" y="333" type="curve" smooth="yes"/>
      <point x="979" y="389"/>
      <point x="941" y="453"/>
      <point x="839" y="456" type="curve"/>
      <point x="860" y="482"/>
      <point x="891" y="508"/>
      <point x="935" y="532" type="curve" smooth="yes"/>
      <point x="943" y="536"/>
      <point x="947" y="544"/>
      <point x="947" y="552" type="curve" smooth="yes"/>
      <point x="947" y="566"/>
      <point x="935" y="575"/>
      <point x="924" y="575" type="curve" smooth="yes"/>
      <point x="920" y="575"/>
      <point x="916" y="574"/>
      <point x="913" y="572" type="curve" smooth="yes"/>
      <point x="846" y="536"/>
      <point x="806" y="495"/>
      <point x="782" y="456" type="curve"/>
      <point x="114" y="456" type="line" smooth="yes"/>
      <point x="102" y="456"/>
      <point x="91" y="445"/>
      <point x="91" y="433" type="curve" smooth="yes"/>
      <point x="91" y="421"/>
      <point x="102" y="410"/>
      <point x="114" y="410" type="curve" smooth="yes"/>
    </contour>
    <contour>
      <point x="670" y="150" type="curve" smooth="yes"/>
      <point x="670" y="92"/>
      <point x="626" y="42"/>
      <point x="553" y="42" type="curve" smooth="yes"/>
      <point x="483" y="42"/>
      <point x="431" y="91"/>
      <point x="431" y="150" type="curve" smooth="yes"/>
      <point x="431" y="207"/>
      <point x="482" y="257"/>
      <point x="553" y="257" type="curve" smooth="yes"/>
      <point x="625" y="257"/>
      <point x="670" y="207"/>
    </contour>
    <contour>
      <point x="359" y="150" type="curve" smooth="yes"/>
      <point x="359" y="91"/>
      <point x="308" y="42"/>
      <point x="235" y="42" type="curve" smooth="yes"/>
      <point x="165" y="42"/>
      <point x="120" y="92"/>
      <point x="120" y="150" type="curve" smooth="yes"/>
      <point x="120" y="207"/>
      <point x="166" y="257"/>
      <point x="235" y="257" type="curve" smooth="yes"/>
      <point x="310" y="257"/>
      <point x="359" y="207"/>
    </contour>
  </outline>
</glyph>
<glyph name="knHO" format="1">
  <advance width="1391"/>
  <outline>
    <contour>
      <point x="567" y="508" type="curve" smooth="yes"/>
      <point x="567" y="553"/>
      <point x="595" y="589"/>
      <point x="638" y="589" type="curve" smooth="yes"/>
      <point x="674" y="589"/>
      <point x="701" y="566"/>
      <point x="701" y="532" type="curve" smooth="yes"/>
      <point x="701" y="487"/>
      <point x="663" y="456"/>
      <point x="574" y="456" type="curve"/>
      <point x="571" y="470"/>
      <point x="567" y="489"/>
    </contour>
    <contour>
      <point x="372" y="410" type="line"/>
      <point x="372" y="240" type="line"/>
      <point x="343" y="276"/>
      <point x="296" y="303"/>
      <point x="235" y="303" type="curve" smooth="yes"/>
      <point x="136" y="303"/>
      <point x="74" y="229"/>
      <point x="74" y="150" type="curve" smooth="yes"/>
      <point x="74" y="68"/>
      <point x="135" y="-4"/>
      <point x="235" y="-4" type="curve" smooth="yes"/>
      <point x="316" y="-4"/>
      <point x="374" y="40"/>
      <point x="395" y="98" type="curve"/>
      <point x="417" y="40"/>
      <point x="476" y="-4"/>
      <point x="553" y="-4" type="curve" smooth="yes"/>
      <point x="631" y="-4"/>
      <point x="683" y="36"/>
      <point x="705" y="90" type="curve"/>
      <point x="752" y="29"/>
      <point x="804" y="0"/>
      <point x="857" y="0" type="curve" smooth="yes"/>
      <point x="940" y="0"/>
      <point x="981" y="50"/>
      <point x="981" y="125" type="curve" smooth="yes"/>
      <point x="981" y="178"/>
      <point x="956" y="228"/>
      <point x="956" y="288" type="curve" smooth="yes"/>
      <point x="956" y="344"/>
      <point x="996" y="410"/>
      <point x="1075" y="410" type="curve" smooth="yes"/>
      <point x="1155" y="410"/>
      <point x="1250" y="341"/>
      <point x="1273" y="221" type="curve"/>
      <point x="1253" y="226"/>
      <point x="1232" y="229"/>
      <point x="1212" y="229" type="curve" smooth="yes"/>
      <point x="1121" y="229"/>
      <point x="1079" y="171"/>
      <point x="1079" y="106" type="curve" smooth="yes"/>
      <point x="1079" y="48"/>
      <point x="1120" y="-4"/>
      <point x="1191" y="-4" type="curve" smooth="yes"/>
      <point x="1264" y="-4"/>
      <point x="1324" y="55"/>
      <point x="1324" y="167" type="curve" smooth="yes"/>
      <point x="1324" y="354"/>
      <point x="1185" y="456"/>
      <point x="1075" y="456" type="curve" smooth="yes"/>
      <point x="966" y="456"/>
      <point x="910" y="366"/>
      <point x="910" y="288" type="curve" smooth="yes"/>
      <point x="910" y="228"/>
      <point x="935" y="178"/>
      <point x="935" y="125" type="curve" smooth="yes"/>
      <point x="935" y="78"/>
      <point x="910" y="46"/>
      <point x="857" y="46" type="curve" smooth="yes"/>
      <point x="812" y="46"/>
      <point x="767" y="77"/>
      <point x="724" y="142" type="curve" smooth="yes"/>
      <point x="716" y="154" type="line"/>
      <point x="714" y="232"/>
      <point x="655" y="303"/>
      <point x="553" y="303" type="curve" smooth="yes"/>
      <point x="494" y="303"/>
      <point x="447" y="275"/>
      <point x="418" y="239" type="curve"/>
      <point x="418" y="410" type="line"/>
      <point x="573" y="410" type="line" smooth="yes"/>
      <point x="714" y="410"/>
      <point x="747" y="471"/>
      <point x="747" y="532" type="curve" smooth="yes"/>
      <point x="747" y="590"/>
      <point x="704" y="635"/>
      <point x="638" y="635" type="curve" smooth="yes"/>
      <point x="571" y="635"/>
      <point x="521" y="583"/>
      <point x="521" y="508" type="curve" smooth="yes"/>
      <point x="521" y="490"/>
      <point x="524" y="471"/>
      <point x="527" y="456" type="curve"/>
      <point x="114" y="456" type="line" smooth="yes"/>
      <point x="102" y="456"/>
      <point x="91" y="445"/>
      <point x="91" y="433" type="curve" smooth="yes"/>
      <point x="91" y="421"/>
      <point x="102" y="410"/>
      <point x="114" y="410" type="curve" smooth="yes"/>
    </contour>
    <contour>
      <point x="1191" y="42" type="curve" smooth="yes"/>
      <point x="1150" y="42"/>
      <point x="1125" y="72"/>
      <point x="1125" y="106" type="curve" smooth="yes"/>
      <point x="1125" y="149"/>
      <point x="1155" y="183"/>
      <point x="1212" y="183" type="curve" smooth="yes"/>
      <point x="1235" y="183"/>
      <point x="1258" y="178"/>
      <point x="1278" y="172" type="curve"/>
      <point x="1278" y="167" type="line" smooth="yes"/>
      <point x="1278" y="93"/>
      <point x="1244" y="42"/>
    </contour>
    <contour>
      <point x="235" y="42" type="curve" smooth="yes"/>
      <point x="165" y="42"/>
      <point x="120" y="92"/>
      <point x="120" y="150" type="curve" smooth="yes"/>
      <point x="120" y="207"/>
      <point x="166" y="257"/>
      <point x="235" y="257" type="curve" smooth="yes"/>
      <point x="310" y="257"/>
      <point x="359" y="207"/>
      <point x="359" y="150" type="curve" smooth="yes"/>
      <point x="359" y="91"/>
      <point x="308" y="42"/>
    </contour>
    <contour>
      <point x="553" y="257" type="curve" smooth="yes"/>
      <point x="625" y="257"/>
      <point x="670" y="207"/>
      <point x="670" y="150" type="curve" smooth="yes"/>
      <point x="670" y="92"/>
      <point x="626" y="42"/>
      <point x="553" y="42" type="curve" smooth="yes"/>
      <point x="483" y="42"/>
      <point x="431" y="91"/>
      <point x="431" y="150" type="curve" smooth="yes"/>
      <point x="431" y="207"/>
      <point x="482" y="257"/>
    </contour>
  </outline>
</glyph>
<glyph name="knJAc2.following" format="1">
  <advance width="531"/>
  <outline>
    <contour>
      <point x="647" y="-290" type="curve" smooth="yes"/>
      <point x="647" y="-278"/>
      <point x="645" y="-268"/>
      <point x="642" y="-256" type="curve" smooth="yes"/>
      <point x="639" y="-247"/>
      <point x="631" y="-241"/>
      <point x="622" y="-241" type="curve" smooth="yes"/>
      <point x="612" y="-241"/>
      <point x="601" y="-251"/>
      <point x="601" y="-262" type="curve" smooth="yes"/>
      <point x="601" y="-268"/>
      <point x="605" y="-276"/>
      <point x="605" y="-290" type="curve" smooth="yes"/>
      <point x="605" y="-316"/>
      <point x="583" y="-335"/>
      <point x="549" y="-335" type="curve" smooth="yes"/>
      <point x="516" y="-335"/>
      <point x="484" y="-321"/>
      <point x="453" y="-290" type="curve"/>
      <point x="449" y="-287"/>
      <point x="443" y="-284"/>
      <point x="438" y="-284" type="curve" smooth="yes"/>
      <point x="434" y="-284" type="line" smooth="yes"/>
      <point x="429" y="-284"/>
      <point x="423" y="-286"/>
      <point x="420" y="-290" type="curve"/>
      <point x="386" y="-321"/>
      <point x="356" y="-335"/>
      <point x="322" y="-335" type="curve" smooth="yes"/>
      <point x="291" y="-335"/>
      <point x="268" y="-322"/>
      <point x="268" y="-298" type="curve" smooth="yes"/>
      <point x="268" y="-278"/>
      <point x="285" y="-261"/>
      <point x="307" y="-250" type="curve" smooth="yes"/>
      <point x="340" y="-232"/>
      <point x="360" y="-213"/>
      <point x="368" y="-194" type="curve"/>
      <point x="408" y="-227"/>
      <point x="451" y="-246"/>
      <point x="495" y="-246" type="curve" smooth="yes"/>
      <point x="566" y="-246"/>
      <point x="591" y="-203"/>
      <point x="591" y="-158" type="curve" smooth="yes"/>
      <point x="591" y="-146"/>
      <point x="590" y="-139"/>
      <point x="587" y="-128" type="curve" smooth="yes"/>
      <point x="585" y="-119"/>
      <point x="577" y="-112"/>
      <point x="568" y="-112" type="curve" smooth="yes"/>
      <point x="555" y="-112"/>
      <point x="546" y="-121"/>
      <point x="546" y="-132" type="curve" smooth="yes"/>
      <point x="546" y="-138"/>
      <point x="549" y="-148"/>
      <point x="549" y="-158" type="curve" smooth="yes"/>
      <point x="549" y="-183"/>
      <point x="532" y="-204"/>
      <point x="495" y="-204" type="curve" smooth="yes"/>
      <point x="448" y="-204"/>
      <point x="403" y="-176"/>
      <point x="361" y="-131" type="curve" smooth="yes"/>
      <point x="341" y="-110"/>
      <point x="320" y="-100"/>
      <point x="290" y="-100" type="curve" smooth="yes"/>
      <point x="262" y="-100"/>
      <point x="241" y="-105"/>
      <point x="219" y="-116" type="curve" smooth="yes"/>
      <point x="212" y="-120"/>
      <point x="208" y="-128"/>
      <point x="208" y="-136" type="curve" smooth="yes"/>
      <point x="208" y="-147"/>
      <point x="219" y="-156"/>
      <point x="230" y="-156" type="curve" smooth="yes"/>
      <point x="233" y="-156"/>
      <point x="239" y="-154"/>
      <point x="249" y="-149" type="curve" smooth="yes"/>
      <point x="258" y="-145"/>
      <point x="270" y="-142"/>
      <point x="290" y="-142" type="curve" smooth="yes"/>
      <point x="309" y="-142"/>
      <point x="331" y="-152"/>
      <point x="331" y="-171" type="curve" smooth="yes"/>
      <point x="331" y="-187"/>
      <point x="312" y="-199"/>
      <point x="287" y="-212" type="curve" smooth="yes"/>
      <point x="249" y="-233"/>
      <point x="226" y="-264"/>
      <point x="226" y="-298" type="curve" smooth="yes"/>
      <point x="226" y="-340"/>
      <point x="257" y="-377"/>
      <point x="322" y="-377" type="curve" smooth="yes"/>
      <point x="362" y="-377"/>
      <point x="396" y="-364"/>
      <point x="435" y="-331" type="curve"/>
      <point x="472" y="-364"/>
      <point x="510" y="-377"/>
      <point x="549" y="-377" type="curve" smooth="yes"/>
      <point x="615" y="-377"/>
      <point x="647" y="-336"/>
    </contour>
  </outline>
</glyph>
<glyph name="knLL" format="1">
  <advance width="1010"/>
  <outline>
    <contour>
      <point x="192" y="317" type="curve" smooth="yes"/>
      <point x="163" y="317"/>
      <point x="136" y="323"/>
      <point x="112" y="333" type="curve"/>
      <point x="112" y="379"/>
      <point x="148" y="425"/>
      <point x="198" y="425" type="curve" smooth="yes"/>
      <point x="237" y="425"/>
      <point x="263" y="402"/>
      <point x="263" y="371" type="curve" smooth="yes"/>
      <point x="263" y="338"/>
      <point x="234" y="317"/>
    </contour>
    <contour>
      <point x="860" y="269" type="curve" smooth="yes"/>
      <point x="822" y="269"/>
      <point x="789" y="300"/>
      <point x="789" y="345" type="curve" smooth="yes"/>
      <point x="789" y="365"/>
      <point x="792" y="387"/>
      <point x="802" y="410" type="curve"/>
      <point x="821" y="410" type="line" smooth="yes"/>
      <point x="889" y="410"/>
      <point x="923" y="372"/>
      <point x="923" y="333" type="curve" smooth="yes"/>
      <point x="923" y="293"/>
      <point x="898" y="269"/>
    </contour>
    <contour>
      <point x="485" y="84" type="curve" smooth="yes"/>
      <point x="485" y="107"/>
      <point x="479" y="130"/>
      <point x="462" y="149" type="curve"/>
      <point x="524" y="160"/>
      <point x="567" y="181"/>
      <point x="593" y="206" type="curve" smooth="yes"/>
      <point x="621" y="232"/>
      <point x="636" y="268"/>
      <point x="636" y="304" type="curve" smooth="yes"/>
      <point x="636" y="336"/>
      <point x="622" y="377"/>
      <point x="592" y="410" type="curve"/>
      <point x="752" y="410" type="line"/>
      <point x="745" y="387"/>
      <point x="743" y="365"/>
      <point x="743" y="345" type="curve" smooth="yes"/>
      <point x="743" y="270"/>
      <point x="798" y="223"/>
      <point x="860" y="223" type="curve" smooth="yes"/>
      <point x="924" y="223"/>
      <point x="969" y="265"/>
      <point x="969" y="333" type="curve" smooth="yes"/>
      <point x="969" y="389"/>
      <point x="931" y="453"/>
      <point x="829" y="456" type="curve"/>
      <point x="850" y="482"/>
      <point x="881" y="508"/>
      <point x="925" y="532" type="curve" smooth="yes"/>
      <point x="933" y="536"/>
      <point x="937" y="544"/>
      <point x="937" y="552" type="curve" smooth="yes"/>
      <point x="937" y="566"/>
      <point x="925" y="575"/>
      <point x="914" y="575" type="curve" smooth="yes"/>
      <point x="910" y="575"/>
      <point x="906" y="574"/>
      <point x="903" y="572" type="curve" smooth="yes"/>
      <point x="836" y="536"/>
      <point x="796" y="495"/>
      <point x="772" y="456" type="curve"/>
      <point x="428" y="456" type="line" smooth="yes"/>
      <point x="416" y="456"/>
      <point x="405" y="445"/>
      <point x="405" y="433" type="curve" smooth="yes"/>
      <point x="405" y="421"/>
      <point x="416" y="410"/>
      <point x="428" y="410" type="curve" smooth="yes"/>
      <point x="516" y="410" type="line"/>
      <point x="565" y="387"/>
      <point x="590" y="339"/>
      <point x="590" y="304" type="curve" smooth="yes"/>
      <point x="590" y="280"/>
      <point x="579" y="256"/>
      <point x="561" y="238" type="curve" smooth="yes"/>
      <point x="529" y="207"/>
      <point x="462" y="187"/>
      <point x="360" y="187" type="curve" smooth="yes"/>
      <point x="227" y="187"/>
      <point x="175" y="207"/>
      <point x="137" y="245" type="curve" smooth="yes"/>
      <point x="127" y="255"/>
      <point x="121" y="268"/>
      <point x="118" y="282" type="curve"/>
      <point x="141" y="275"/>
      <point x="165" y="271"/>
      <point x="192" y="271" type="curve" smooth="yes"/>
      <point x="270" y="271"/>
      <point x="309" y="316"/>
      <point x="309" y="371" type="curve" smooth="yes"/>
      <point x="309" y="424"/>
      <point x="269" y="471"/>
      <point x="198" y="471" type="curve" smooth="yes"/>
      <point x="124" y="471"/>
      <point x="66" y="407"/>
      <point x="66" y="329" type="curve" smooth="yes"/>
      <point x="66" y="286"/>
      <point x="78" y="239"/>
      <point x="105" y="213" type="curve" smooth="yes"/>
      <point x="134" y="183"/>
      <point x="171" y="160"/>
      <point x="244" y="149" type="curve"/>
      <point x="227" y="130"/>
      <point x="220" y="107"/>
      <point x="220" y="85" type="curve" smooth="yes"/>
      <point x="220" y="38"/>
      <point x="257" y="-16"/>
      <point x="352" y="-16" type="curve" smooth="yes"/>
      <point x="451" y="-16"/>
      <point x="485" y="38"/>
    </contour>
    <contour>
      <point x="352" y="139" type="curve" smooth="yes"/>
      <point x="356" y="139" type="line" smooth="yes"/>
      <point x="412" y="139"/>
      <point x="439" y="115"/>
      <point x="439" y="84" type="curve" smooth="yes"/>
      <point x="439" y="54"/>
      <point x="405" y="30"/>
      <point x="352" y="30" type="curve" smooth="yes"/>
      <point x="301" y="30"/>
      <point x="266" y="54"/>
      <point x="266" y="85" type="curve" smooth="yes"/>
      <point x="266" y="116"/>
      <point x="298" y="138"/>
    </contour>
  </outline>
</glyph>
<glyph name="knLLO" format="1">
  <advance width="1291"/>
  <outline>
    <contour>
      <point x="524" y="508" type="curve" smooth="yes"/>
      <point x="524" y="553"/>
      <point x="552" y="589"/>
      <point x="595" y="589" type="curve" smooth="yes"/>
      <point x="631" y="589"/>
      <point x="658" y="566"/>
      <point x="658" y="532" type="curve" smooth="yes"/>
      <point x="658" y="487"/>
      <point x="620" y="456"/>
      <point x="531" y="456" type="curve"/>
      <point x="528" y="470"/>
      <point x="524" y="489"/>
    </contour>
    <contour>
      <point x="192" y="317" type="curve" smooth="yes"/>
      <point x="163" y="317"/>
      <point x="136" y="323"/>
      <point x="112" y="333" type="curve"/>
      <point x="112" y="379"/>
      <point x="148" y="425"/>
      <point x="198" y="425" type="curve" smooth="yes"/>
      <point x="237" y="425"/>
      <point x="263" y="402"/>
      <point x="263" y="371" type="curve" smooth="yes"/>
      <point x="263" y="338"/>
      <point x="234" y="317"/>
    </contour>
    <contour>
      <point x="1091" y="42" type="curve" smooth="yes"/>
      <point x="1050" y="42"/>
      <point x="1025" y="72"/>
      <point x="1025" y="106" type="curve" smooth="yes"/>
      <point x="1025" y="149"/>
      <point x="1055" y="183"/>
      <point x="1112" y="183" type="curve" smooth="yes"/>
      <point x="1135" y="183"/>
      <point x="1158" y="178"/>
      <point x="1178" y="172" type="curve"/>
      <point x="1178" y="167" type="line" smooth="yes"/>
      <point x="1178" y="93"/>
      <point x="1144" y="42"/>
    </contour>
    <contour>
      <point x="485" y="84" type="curve" smooth="yes"/>
      <point x="485" y="107"/>
      <point x="479" y="130"/>
      <point x="462" y="149" type="curve"/>
      <point x="494" y="155"/>
      <point x="521" y="163"/>
      <point x="543" y="173" type="curve"/>
      <point x="599" y="72"/>
      <point x="668" y="0"/>
      <point x="757" y="0" type="curve" smooth="yes"/>
      <point x="840" y="0"/>
      <point x="881" y="50"/>
      <point x="881" y="125" type="curve" smooth="yes"/>
      <point x="881" y="178"/>
      <point x="856" y="228"/>
      <point x="856" y="288" type="curve" smooth="yes"/>
      <point x="856" y="344"/>
      <point x="896" y="410"/>
      <point x="975" y="410" type="curve" smooth="yes"/>
      <point x="1055" y="410"/>
      <point x="1150" y="341"/>
      <point x="1173" y="221" type="curve"/>
      <point x="1153" y="226"/>
      <point x="1132" y="229"/>
      <point x="1112" y="229" type="curve" smooth="yes"/>
      <point x="1021" y="229"/>
      <point x="979" y="171"/>
      <point x="979" y="106" type="curve" smooth="yes"/>
      <point x="979" y="48"/>
      <point x="1020" y="-4"/>
      <point x="1091" y="-4" type="curve" smooth="yes"/>
      <point x="1164" y="-4"/>
      <point x="1224" y="55"/>
      <point x="1224" y="167" type="curve" smooth="yes"/>
      <point x="1224" y="354"/>
      <point x="1085" y="456"/>
      <point x="975" y="456" type="curve" smooth="yes"/>
      <point x="866" y="456"/>
      <point x="810" y="366"/>
      <point x="810" y="288" type="curve" smooth="yes"/>
      <point x="810" y="228"/>
      <point x="835" y="178"/>
      <point x="835" y="125" type="curve" smooth="yes"/>
      <point x="835" y="78"/>
      <point x="810" y="46"/>
      <point x="757" y="46" type="curve" smooth="yes"/>
      <point x="682" y="46"/>
      <point x="628" y="114"/>
      <point x="583" y="197" type="curve"/>
      <point x="586" y="200"/>
      <point x="590" y="203"/>
      <point x="593" y="206" type="curve" smooth="yes"/>
      <point x="621" y="232"/>
      <point x="636" y="268"/>
      <point x="636" y="304" type="curve" smooth="yes"/>
      <point x="636" y="338"/>
      <point x="620" y="381"/>
      <point x="588" y="414" type="curve"/>
      <point x="680" y="429"/>
      <point x="704" y="480"/>
      <point x="704" y="532" type="curve" smooth="yes"/>
      <point x="704" y="590"/>
      <point x="661" y="635"/>
      <point x="595" y="635" type="curve" smooth="yes"/>
      <point x="528" y="635"/>
      <point x="478" y="583"/>
      <point x="478" y="508" type="curve" smooth="yes"/>
      <point x="478" y="490"/>
      <point x="481" y="471"/>
      <point x="484" y="456" type="curve"/>
      <point x="428" y="456" type="line" smooth="yes"/>
      <point x="416" y="456"/>
      <point x="405" y="445"/>
      <point x="405" y="433" type="curve" smooth="yes"/>
      <point x="405" y="421"/>
      <point x="416" y="410"/>
      <point x="428" y="410" type="curve" smooth="yes"/>
      <point x="516" y="410" type="line"/>
      <point x="565" y="387"/>
      <point x="590" y="339"/>
      <point x="590" y="304" type="curve" smooth="yes"/>
      <point x="590" y="280"/>
      <point x="579" y="256"/>
      <point x="561" y="238" type="curve" smooth="yes"/>
      <point x="529" y="207"/>
      <point x="462" y="187"/>
      <point x="360" y="187" type="curve" smooth="yes"/>
      <point x="227" y="187"/>
      <point x="175" y="207"/>
      <point x="137" y="245" type="curve" smooth="yes"/>
      <point x="127" y="255"/>
      <point x="121" y="268"/>
      <point x="118" y="282" type="curve"/>
      <point x="141" y="275"/>
      <point x="165" y="271"/>
      <point x="192" y="271" type="curve" smooth="yes"/>
      <point x="270" y="271"/>
      <point x="309" y="316"/>
      <point x="309" y="371" type="curve" smooth="yes"/>
      <point x="309" y="424"/>
      <point x="269" y="471"/>
      <point x="198" y="471" type="curve" smooth="yes"/>
      <point x="124" y="471"/>
      <point x="66" y="407"/>
      <point x="66" y="329" type="curve" smooth="yes"/>
      <point x="66" y="286"/>
      <point x="78" y="239"/>
      <point x="105" y="213" type="curve" smooth="yes"/>
      <point x="134" y="183"/>
      <point x="171" y="160"/>
      <point x="244" y="149" type="curve"/>
      <point x="227" y="130"/>
      <point x="220" y="107"/>
      <point x="220" y="85" type="curve" smooth="yes"/>
      <point x="220" y="38"/>
      <point x="257" y="-16"/>
      <point x="352" y="-16" type="curve" smooth="yes"/>
      <point x="451" y="-16"/>
      <point x="485" y="38"/>
    </contour>
    <contour>
      <point x="352" y="139" type="curve" smooth="yes"/>
      <point x="356" y="139" type="line" smooth="yes"/>
      <point x="412" y="139"/>
      <point x="439" y="115"/>
      <point x="439" y="84" type="curve" smooth="yes"/>
      <point x="439" y="54"/>
      <point x="405" y="30"/>
      <point x="352" y="30" type="curve" smooth="yes"/>
      <point x="301" y="30"/>
      <point x="266" y="54"/>
      <point x="266" y="85" type="curve" smooth="yes"/>
      <point x="266" y="116"/>
      <point x="298" y="138"/>
    </contour>
  </outline>
</glyph>
<glyph name="knNAA" format="1">
  <advance width="1013"/>
  <outline>
    <contour>
      <point x="813" y="42" type="curve" smooth="yes"/>
      <point x="772" y="42"/>
      <point x="747" y="72"/>
      <point x="747" y="106" type="curve" smooth="yes"/>
      <point x="747" y="149"/>
      <point x="777" y="183"/>
      <point x="834" y="183" type="curve" smooth="yes"/>
      <point x="857" y="183"/>
      <point x="880" y="178"/>
      <point x="900" y="172" type="curve"/>
      <point x="900" y="167" type="line" smooth="yes"/>
      <point x="900" y="93"/>
      <point x="866" y="42"/>
    </contour>
    <contour>
      <point x="138" y="13" type="curve" smooth="yes"/>
      <point x="138" y="81"/>
      <point x="147" y="136"/>
      <point x="172" y="162" type="curve" smooth="yes"/>
      <point x="183" y="173"/>
      <point x="199" y="182"/>
      <point x="220" y="182" type="curve" smooth="yes"/>
      <point x="253" y="182"/>
      <point x="288" y="161"/>
      <point x="318" y="110" type="curve" smooth="yes"/>
      <point x="361" y="39"/>
      <point x="396" y="0"/>
      <point x="463" y="0" type="curve" smooth="yes"/>
      <point x="523" y="0"/>
      <point x="597" y="45"/>
      <point x="597" y="168" type="curve" smooth="yes"/>
      <point x="597" y="254"/>
      <point x="543" y="342"/>
      <point x="461" y="410" type="curve"/>
      <point x="672" y="410" type="line" smooth="yes"/>
      <point x="788" y="410"/>
      <point x="876" y="342"/>
      <point x="896" y="221" type="curve"/>
      <point x="876" y="226"/>
      <point x="854" y="229"/>
      <point x="834" y="229" type="curve" smooth="yes"/>
      <point x="743" y="229"/>
      <point x="701" y="171"/>
      <point x="701" y="106" type="curve" smooth="yes"/>
      <point x="701" y="48"/>
      <point x="742" y="-4"/>
      <point x="813" y="-4" type="curve" smooth="yes"/>
      <point x="886" y="-4"/>
      <point x="946" y="55"/>
      <point x="946" y="167" type="curve" smooth="yes"/>
      <point x="946" y="353"/>
      <point x="831" y="456"/>
      <point x="672" y="456" type="curve" smooth="yes"/>
      <point x="106" y="456" type="line" smooth="yes"/>
      <point x="94" y="456"/>
      <point x="83" y="445"/>
      <point x="83" y="433" type="curve" smooth="yes"/>
      <point x="83" y="421"/>
      <point x="94" y="410"/>
      <point x="106" y="410" type="curve" smooth="yes"/>
      <point x="382" y="410" type="line"/>
      <point x="478" y="349"/>
      <point x="551" y="259"/>
      <point x="551" y="168" type="curve" smooth="yes"/>
      <point x="551" y="87"/>
      <point x="507" y="46"/>
      <point x="463" y="46" type="curve" smooth="yes"/>
      <point x="412" y="46"/>
      <point x="389" y="83"/>
      <point x="358" y="134" type="curve" smooth="yes"/>
      <point x="314" y="205"/>
      <point x="265" y="228"/>
      <point x="220" y="228" type="curve" smooth="yes"/>
      <point x="185" y="228"/>
      <point x="159" y="213"/>
      <point x="140" y="194" type="curve" smooth="yes"/>
      <point x="109" y="164"/>
      <point x="92" y="99"/>
      <point x="92" y="13" type="curve" smooth="yes"/>
      <point x="92" y="1"/>
      <point x="103" y="-10"/>
      <point x="115" y="-10" type="curve" smooth="yes"/>
      <point x="127" y="-10"/>
      <point x="138" y="1"/>
    </contour>
  </outline>
</glyph>
<glyph name="knNAc2.following" format="1">
  <advance width="546"/>
  <outline>
    <contour>
      <point x="626" y="-347" type="curve" smooth="yes"/>
      <point x="637" y="-347"/>
      <point x="647" y="-338"/>
      <point x="647" y="-326" type="curve" smooth="yes"/>
      <point x="647" y="-321"/>
      <point x="645" y="-316"/>
      <point x="641" y="-311" type="curve" smooth="yes"/>
      <point x="605" y="-273"/>
      <point x="572" y="-243"/>
      <point x="540" y="-219" type="curve"/>
      <point x="547" y="-199"/>
      <point x="551" y="-178"/>
      <point x="551" y="-156" type="curve" smooth="yes"/>
      <point x="551" y="-92"/>
      <point x="538" y="-19"/>
      <point x="511" y="51" type="curve" smooth="yes"/>
      <point x="508" y="60"/>
      <point x="499" y="65"/>
      <point x="491" y="65" type="curve" smooth="yes"/>
      <point x="478" y="65"/>
      <point x="470" y="54"/>
      <point x="470" y="44" type="curve" smooth="yes"/>
      <point x="470" y="41"/>
      <point x="473" y="31"/>
      <point x="483" y="1" type="curve" smooth="yes"/>
      <point x="496" y="-37"/>
      <point x="509" y="-96"/>
      <point x="509" y="-156" type="curve" smooth="yes"/>
      <point x="509" y="-169"/>
      <point x="507" y="-181"/>
      <point x="504" y="-193" type="curve"/>
      <point x="446" y="-155"/>
      <point x="394" y="-139"/>
      <point x="344" y="-139" type="curve" smooth="yes"/>
      <point x="243" y="-139"/>
      <point x="205" y="-189"/>
      <point x="205" y="-241" type="curve" smooth="yes"/>
      <point x="205" y="-293"/>
      <point x="248" y="-344"/>
      <point x="346" y="-344" type="curve" smooth="yes"/>
      <point x="425" y="-344"/>
      <point x="487" y="-309"/>
      <point x="521" y="-257" type="curve"/>
      <point x="549" y="-280"/>
      <point x="579" y="-307"/>
      <point x="611" y="-341" type="curve" smooth="yes"/>
      <point x="615" y="-345"/>
      <point x="620" y="-347"/>
    </contour>
    <contour>
      <point x="346" y="-302" type="curve" smooth="yes"/>
      <point x="288" y="-302"/>
      <point x="247" y="-277"/>
      <point x="247" y="-241" type="curve" smooth="yes"/>
      <point x="247" y="-205"/>
      <point x="285" y="-181"/>
      <point x="344" y="-181" type="curve" smooth="yes"/>
      <point x="389" y="-181"/>
      <point x="435" y="-196"/>
      <point x="487" y="-232" type="curve"/>
      <point x="460" y="-274"/>
      <point x="409" y="-302"/>
    </contour>
  </outline>
</glyph>
<glyph name="knNGAU" format="1">
  <advance width="1132"/>
  <outline>
    <contour>
      <point x="683" y="131" type="curve" smooth="yes"/>
      <point x="683" y="181"/>
      <point x="663" y="222"/>
      <point x="631" y="252" type="curve" smooth="yes"/>
      <point x="627" y="256"/>
      <point x="621" y="258"/>
      <point x="615" y="258" type="curve" smooth="yes"/>
      <point x="602" y="258"/>
      <point x="592" y="249"/>
      <point x="592" y="235" type="curve" smooth="yes"/>
      <point x="592" y="229"/>
      <point x="594" y="223"/>
      <point x="599" y="218" type="curve" smooth="yes"/>
      <point x="623" y="196"/>
      <point x="637" y="167"/>
      <point x="637" y="131" type="curve" smooth="yes"/>
      <point x="637" y="85"/>
      <point x="602" y="47"/>
      <point x="545" y="47" type="curve" smooth="yes"/>
      <point x="480" y="47"/>
      <point x="439" y="80"/>
      <point x="403" y="137" type="curve" smooth="yes"/>
      <point x="399" y="143"/>
      <point x="391" y="148"/>
      <point x="384" y="148" type="curve" smooth="yes"/>
      <point x="379" y="148" type="line" smooth="yes"/>
      <point x="372" y="148"/>
      <point x="363" y="143"/>
      <point x="359" y="137" type="curve" smooth="yes"/>
      <point x="320" y="74"/>
      <point x="281" y="47"/>
      <point x="222" y="47" type="curve" smooth="yes"/>
      <point x="165" y="47"/>
      <point x="133" y="82"/>
      <point x="133" y="126" type="curve" smooth="yes"/>
      <point x="133" y="168"/>
      <point x="162" y="203"/>
      <point x="203" y="236" type="curve" smooth="yes"/>
      <point x="252" y="275"/>
      <point x="276" y="307"/>
      <point x="286" y="338" type="curve" smooth="yes"/>
      <point x="320" y="438"/>
      <point x="379" y="478"/>
      <point x="443" y="478" type="curve" smooth="yes"/>
      <point x="504" y="478"/>
      <point x="553" y="451"/>
      <point x="600" y="380" type="curve" smooth="yes"/>
      <point x="604" y="374"/>
      <point x="612" y="370"/>
      <point x="619" y="370" type="curve" smooth="yes"/>
      <point x="631" y="370"/>
      <point x="642" y="380"/>
      <point x="642" y="393" type="curve" smooth="yes"/>
      <point x="642" y="397"/>
      <point x="641" y="402"/>
      <point x="638" y="406" type="curve" smooth="yes"/>
      <point x="637" y="408"/>
      <point x="636" y="409"/>
      <point x="634" y="412" type="curve"/>
      <point x="722" y="423"/>
      <point x="777" y="479"/>
      <point x="782" y="581" type="curve"/>
      <point x="788" y="581" type="line" smooth="yes"/>
      <point x="902" y="581"/>
      <point x="989" y="532"/>
      <point x="1011" y="424" type="curve"/>
      <point x="991" y="428"/>
      <point x="970" y="431"/>
      <point x="950" y="431" type="curve" smooth="yes"/>
      <point x="859" y="431"/>
      <point x="817" y="373"/>
      <point x="817" y="308" type="curve" smooth="yes"/>
      <point x="817" y="250"/>
      <point x="860" y="201"/>
      <point x="929" y="201" type="curve" smooth="yes"/>
      <point x="1002" y="201"/>
      <point x="1062" y="259"/>
      <point x="1062" y="367" type="curve" smooth="yes"/>
      <point x="1062" y="545"/>
      <point x="948" y="627"/>
      <point x="788" y="627" type="curve" smooth="yes"/>
      <point x="564" y="627" type="line" smooth="yes"/>
      <point x="552" y="627"/>
      <point x="541" y="616"/>
      <point x="541" y="604" type="curve" smooth="yes"/>
      <point x="541" y="592"/>
      <point x="552" y="581"/>
      <point x="564" y="581" type="curve" smooth="yes"/>
      <point x="736" y="581" type="line"/>
      <point x="730" y="499"/>
      <point x="680" y="456"/>
      <point x="599" y="456" type="curve"/>
      <point x="552" y="505"/>
      <point x="501" y="524"/>
      <point x="443" y="524" type="curve" smooth="yes"/>
      <point x="382" y="524"/>
      <point x="321" y="498"/>
      <point x="276" y="426" type="curve"/>
      <point x="259" y="453"/>
      <point x="227" y="472"/>
      <point x="183" y="472" type="curve" smooth="yes"/>
      <point x="140" y="472"/>
      <point x="105" y="452"/>
      <point x="75" y="418" type="curve"/>
      <point x="71" y="414"/>
      <point x="69" y="408"/>
      <point x="69" y="403" type="curve" smooth="yes"/>
      <point x="69" y="390"/>
      <point x="81" y="380"/>
      <point x="92" y="380" type="curve" smooth="yes"/>
      <point x="99" y="380"/>
      <point x="105" y="383"/>
      <point x="109" y="388" type="curve"/>
      <point x="129" y="410"/>
      <point x="154" y="426"/>
      <point x="183" y="426" type="curve" smooth="yes"/>
      <point x="219" y="426"/>
      <point x="245" y="403"/>
      <point x="245" y="372" type="curve" smooth="yes"/>
      <point x="245" y="338"/>
      <point x="223" y="311"/>
      <point x="175" y="272" type="curve" smooth="yes"/>
      <point x="120" y="227"/>
      <point x="87" y="180"/>
      <point x="87" y="126" type="curve" smooth="yes"/>
      <point x="87" y="60"/>
      <point x="133" y="1"/>
      <point x="222" y="1" type="curve" smooth="yes"/>
      <point x="289" y="1"/>
      <point x="337" y="26"/>
      <point x="382" y="88" type="curve"/>
      <point x="425" y="31"/>
      <point x="474" y="1"/>
      <point x="545" y="1" type="curve" smooth="yes"/>
      <point x="632" y="1"/>
      <point x="683" y="61"/>
    </contour>
    <contour>
      <point x="929" y="247" type="curve" smooth="yes"/>
      <point x="890" y="247"/>
      <point x="863" y="274"/>
      <point x="863" y="308" type="curve" smooth="yes"/>
      <point x="863" y="351"/>
      <point x="893" y="385"/>
      <point x="950" y="385" type="curve" smooth="yes"/>
      <point x="973" y="385"/>
      <point x="996" y="380"/>
      <point x="1016" y="374" type="curve"/>
      <point x="1016" y="367"/>
      <point x="1016" y="367"/>
      <point x="1016" y="367" type="curve"/>
      <point x="1016" y="297"/>
      <point x="982" y="247"/>
    </contour>
    <contour>
      <point x="428" y="364" type="curve" smooth="yes"/>
      <point x="400" y="364"/>
      <point x="377" y="336"/>
      <point x="377" y="314" type="curve" smooth="yes"/>
      <point x="377" y="285"/>
      <point x="401" y="262"/>
      <point x="428" y="262" type="curve" smooth="yes"/>
      <point x="459" y="262"/>
      <point x="480" y="286"/>
      <point x="480" y="313" type="curve" smooth="yes"/>
      <point x="480" y="336"/>
      <point x="459" y="364"/>
    </contour>
  </outline>
</glyph>
<glyph name="knNNO" format="1">
  <advance width="1365"/>
  <outline>
    <contour>
      <point x="561" y="508" type="curve" smooth="yes"/>
      <point x="561" y="553"/>
      <point x="589" y="589"/>
      <point x="632" y="589" type="curve" smooth="yes"/>
      <point x="668" y="589"/>
      <point x="695" y="566"/>
      <point x="695" y="532" type="curve" smooth="yes"/>
      <point x="695" y="487"/>
      <point x="657" y="456"/>
      <point x="568" y="456" type="curve"/>
      <point x="565" y="470"/>
      <point x="561" y="489"/>
    </contour>
    <contour>
      <point x="568" y="410" type="line" smooth="yes"/>
      <point x="708" y="410"/>
      <point x="741" y="471"/>
      <point x="741" y="532" type="curve" smooth="yes"/>
      <point x="741" y="590"/>
      <point x="698" y="635"/>
      <point x="632" y="635" type="curve" smooth="yes"/>
      <point x="565" y="635"/>
      <point x="515" y="583"/>
      <point x="515" y="508" type="curve" smooth="yes"/>
      <point x="515" y="490"/>
      <point x="518" y="471"/>
      <point x="521" y="456" type="curve"/>
      <point x="121" y="456" type="line" smooth="yes"/>
      <point x="109" y="456"/>
      <point x="98" y="445"/>
      <point x="98" y="433" type="curve" smooth="yes"/>
      <point x="98" y="421"/>
      <point x="109" y="410"/>
      <point x="121" y="410" type="curve" smooth="yes"/>
    </contour>
    <contour>
      <point x="1165" y="42" type="curve" smooth="yes"/>
      <point x="1124" y="42"/>
      <point x="1099" y="72"/>
      <point x="1099" y="106" type="curve" smooth="yes"/>
      <point x="1099" y="149"/>
      <point x="1129" y="183"/>
      <point x="1186" y="183" type="curve" smooth="yes"/>
      <point x="1209" y="183"/>
      <point x="1232" y="178"/>
      <point x="1252" y="172" type="curve"/>
      <point x="1252" y="167" type="line" smooth="yes"/>
      <point x="1252" y="93"/>
      <point x="1218" y="42"/>
    </contour>
    <contour>
      <point x="545" y="41" type="curve" smooth="yes"/>
      <point x="508" y="41"/>
      <point x="476" y="60"/>
      <point x="476" y="92" type="curve" smooth="yes"/>
      <point x="476" y="121"/>
      <point x="501" y="146"/>
      <point x="546" y="146" type="curve" smooth="yes"/>
      <point x="589" y="146"/>
      <point x="617" y="131"/>
      <point x="640" y="110" type="curve"/>
      <point x="625" y="64"/>
      <point x="592" y="41"/>
    </contour>
    <contour>
      <point x="831" y="0" type="curve" smooth="yes"/>
      <point x="914" y="0"/>
      <point x="955" y="50"/>
      <point x="955" y="125" type="curve" smooth="yes"/>
      <point x="955" y="178"/>
      <point x="930" y="228"/>
      <point x="930" y="288" type="curve" smooth="yes"/>
      <point x="930" y="344"/>
      <point x="970" y="410"/>
      <point x="1049" y="410" type="curve" smooth="yes"/>
      <point x="1129" y="410"/>
      <point x="1224" y="341"/>
      <point x="1247" y="221" type="curve"/>
      <point x="1227" y="226"/>
      <point x="1206" y="229"/>
      <point x="1186" y="229" type="curve" smooth="yes"/>
      <point x="1095" y="229"/>
      <point x="1053" y="171"/>
      <point x="1053" y="106" type="curve" smooth="yes"/>
      <point x="1053" y="48"/>
      <point x="1094" y="-4"/>
      <point x="1165" y="-4" type="curve" smooth="yes"/>
      <point x="1238" y="-4"/>
      <point x="1298" y="55"/>
      <point x="1298" y="167" type="curve" smooth="yes"/>
      <point x="1298" y="354"/>
      <point x="1159" y="456"/>
      <point x="1049" y="456" type="curve" smooth="yes"/>
      <point x="940" y="456"/>
      <point x="884" y="366"/>
      <point x="884" y="288" type="curve" smooth="yes"/>
      <point x="884" y="228"/>
      <point x="909" y="178"/>
      <point x="909" y="125" type="curve" smooth="yes"/>
      <point x="909" y="78"/>
      <point x="884" y="46"/>
      <point x="831" y="46" type="curve" smooth="yes"/>
      <point x="775" y="46"/>
      <point x="732" y="91"/>
      <point x="694" y="148" type="curve"/>
      <point x="695" y="159"/>
      <point x="695" y="163"/>
      <point x="695" y="171" type="curve" smooth="yes"/>
      <point x="695" y="303"/>
      <point x="623" y="358"/>
      <point x="533" y="358" type="curve" smooth="yes"/>
      <point x="473" y="358"/>
      <point x="424" y="326"/>
      <point x="387" y="279" type="curve"/>
      <point x="352" y="325"/>
      <point x="300" y="359"/>
      <point x="228" y="359" type="curve" smooth="yes"/>
      <point x="135" y="359"/>
      <point x="101" y="307"/>
      <point x="101" y="257" type="curve" smooth="yes"/>
      <point x="101" y="228"/>
      <point x="116" y="199"/>
      <point x="144" y="179" type="curve"/>
      <point x="109" y="161"/>
      <point x="89" y="132"/>
      <point x="89" y="97" type="curve" smooth="yes"/>
      <point x="89" y="42"/>
      <point x="135" y="-1"/>
      <point x="236" y="-1" type="curve" smooth="yes"/>
      <point x="257" y="-1"/>
      <point x="276" y="2"/>
      <point x="296" y="7" type="curve" smooth="yes"/>
      <point x="306" y="9"/>
      <point x="314" y="19"/>
      <point x="314" y="29" type="curve" smooth="yes"/>
      <point x="314" y="41"/>
      <point x="304" y="51"/>
      <point x="292" y="51" type="curve" smooth="yes"/>
      <point x="284" y="51"/>
      <point x="256" y="45"/>
      <point x="236" y="45" type="curve" smooth="yes"/>
      <point x="183" y="45"/>
      <point x="135" y="60"/>
      <point x="135" y="97" type="curve" smooth="yes"/>
      <point x="135" y="134"/>
      <point x="181" y="150"/>
      <point x="224" y="150" type="curve" smooth="yes"/>
      <point x="252" y="150" type="line" smooth="yes"/>
      <point x="264" y="150"/>
      <point x="275" y="161"/>
      <point x="275" y="173" type="curve" smooth="yes"/>
      <point x="275" y="185"/>
      <point x="264" y="196"/>
      <point x="252" y="196" type="curve" smooth="yes"/>
      <point x="242" y="196" type="line" smooth="yes"/>
      <point x="192" y="196"/>
      <point x="147" y="221"/>
      <point x="147" y="257" type="curve" smooth="yes"/>
      <point x="147" y="289"/>
      <point x="177" y="313"/>
      <point x="228" y="313" type="curve" smooth="yes"/>
      <point x="294" y="313"/>
      <point x="338" y="274"/>
      <point x="366" y="230" type="curve" smooth="yes"/>
      <point x="370" y="224"/>
      <point x="378" y="219"/>
      <point x="385" y="219" type="curve" smooth="yes"/>
      <point x="389" y="219" type="line" smooth="yes"/>
      <point x="396" y="219"/>
      <point x="404" y="224"/>
      <point x="408" y="229" type="curve" smooth="yes"/>
      <point x="439" y="275"/>
      <point x="479" y="312"/>
      <point x="533" y="312" type="curve" smooth="yes"/>
      <point x="600" y="312"/>
      <point x="649" y="267"/>
      <point x="649" y="174" type="curve" smooth="yes"/>
      <point x="649" y="161" type="line"/>
      <point x="622" y="180"/>
      <point x="591" y="192"/>
      <point x="546" y="192" type="curve" smooth="yes"/>
      <point x="463" y="192"/>
      <point x="430" y="141"/>
      <point x="430" y="92" type="curve" smooth="yes"/>
      <point x="430" y="40"/>
      <point x="476" y="-5"/>
      <point x="545" y="-5" type="curve" smooth="yes"/>
      <point x="609" y="-5"/>
      <point x="659" y="22"/>
      <point x="682" y="86" type="curve"/>
      <point x="729" y="27"/>
      <point x="780" y="0"/>
    </contour>
  </outline>
</glyph>
<glyph name="knNO" format="1">
  <advance width="1274"/>
  <outline>
    <contour>
      <point x="434" y="508" type="curve" smooth="yes"/>
      <point x="434" y="553"/>
      <point x="462" y="589"/>
      <point x="505" y="589" type="curve" smooth="yes"/>
      <point x="541" y="589"/>
      <point x="568" y="566"/>
      <point x="568" y="532" type="curve" smooth="yes"/>
      <point x="568" y="487"/>
      <point x="530" y="456"/>
      <point x="441" y="456" type="curve"/>
      <point x="438" y="470"/>
      <point x="434" y="489"/>
    </contour>
    <contour>
      <point x="1074" y="42" type="curve" smooth="yes"/>
      <point x="1033" y="42"/>
      <point x="1008" y="72"/>
      <point x="1008" y="106" type="curve" smooth="yes"/>
      <point x="1008" y="149"/>
      <point x="1038" y="183"/>
      <point x="1095" y="183" type="curve" smooth="yes"/>
      <point x="1118" y="183"/>
      <point x="1141" y="178"/>
      <point x="1161" y="172" type="curve"/>
      <point x="1161" y="167" type="line" smooth="yes"/>
      <point x="1161" y="93"/>
      <point x="1127" y="42"/>
    </contour>
    <contour>
      <point x="138" y="13" type="curve" smooth="yes"/>
      <point x="138" y="81"/>
      <point x="147" y="136"/>
      <point x="172" y="162" type="curve" smooth="yes"/>
      <point x="183" y="173"/>
      <point x="199" y="182"/>
      <point x="220" y="182" type="curve" smooth="yes"/>
      <point x="253" y="182"/>
      <point x="288" y="161"/>
      <point x="318" y="110" type="curve" smooth="yes"/>
      <point x="361" y="39"/>
      <point x="396" y="0"/>
      <point x="463" y="0" type="curve" smooth="yes"/>
      <point x="509" y="0"/>
      <point x="563" y="26"/>
      <point x="586" y="93" type="curve"/>
      <point x="634" y="29"/>
      <point x="687" y="0"/>
      <point x="740" y="0" type="curve" smooth="yes"/>
      <point x="823" y="0"/>
      <point x="864" y="50"/>
      <point x="864" y="125" type="curve" smooth="yes"/>
      <point x="864" y="178"/>
      <point x="839" y="228"/>
      <point x="839" y="288" type="curve" smooth="yes"/>
      <point x="839" y="344"/>
      <point x="879" y="410"/>
      <point x="958" y="410" type="curve" smooth="yes"/>
      <point x="1038" y="410"/>
      <point x="1133" y="341"/>
      <point x="1156" y="221" type="curve"/>
      <point x="1136" y="226"/>
      <point x="1115" y="229"/>
      <point x="1095" y="229" type="curve" smooth="yes"/>
      <point x="1004" y="229"/>
      <point x="962" y="171"/>
      <point x="962" y="106" type="curve" smooth="yes"/>
      <point x="962" y="48"/>
      <point x="1003" y="-4"/>
      <point x="1074" y="-4" type="curve" smooth="yes"/>
      <point x="1147" y="-4"/>
      <point x="1207" y="55"/>
      <point x="1207" y="167" type="curve" smooth="yes"/>
      <point x="1207" y="354"/>
      <point x="1068" y="456"/>
      <point x="958" y="456" type="curve" smooth="yes"/>
      <point x="849" y="456"/>
      <point x="793" y="366"/>
      <point x="793" y="288" type="curve" smooth="yes"/>
      <point x="793" y="228"/>
      <point x="818" y="178"/>
      <point x="818" y="125" type="curve" smooth="yes"/>
      <point x="818" y="78"/>
      <point x="793" y="46"/>
      <point x="740" y="46" type="curve" smooth="yes"/>
      <point x="686" y="46"/>
      <point x="634" y="94"/>
      <point x="597" y="157" type="curve"/>
      <point x="597" y="160"/>
      <point x="597" y="164"/>
      <point x="597" y="168" type="curve" smooth="yes"/>
      <point x="597" y="255"/>
      <point x="543" y="342"/>
      <point x="461" y="410" type="curve"/>
      <point x="584" y="416"/>
      <point x="614" y="474"/>
      <point x="614" y="532" type="curve" smooth="yes"/>
      <point x="614" y="590"/>
      <point x="571" y="635"/>
      <point x="505" y="635" type="curve" smooth="yes"/>
      <point x="438" y="635"/>
      <point x="388" y="583"/>
      <point x="388" y="508" type="curve" smooth="yes"/>
      <point x="388" y="490"/>
      <point x="391" y="471"/>
      <point x="394" y="456" type="curve"/>
      <point x="106" y="456" type="line" smooth="yes"/>
      <point x="94" y="456"/>
      <point x="83" y="445"/>
      <point x="83" y="433" type="curve" smooth="yes"/>
      <point x="83" y="421"/>
      <point x="94" y="410"/>
      <point x="106" y="410" type="curve" smooth="yes"/>
      <point x="382" y="410" type="line"/>
      <point x="478" y="349"/>
      <point x="551" y="259"/>
      <point x="551" y="168" type="curve" smooth="yes"/>
      <point x="551" y="87"/>
      <point x="507" y="46"/>
      <point x="463" y="46" type="curve" smooth="yes"/>
      <point x="412" y="46"/>
      <point x="389" y="83"/>
      <point x="358" y="134" type="curve" smooth="yes"/>
      <point x="314" y="205"/>
      <point x="265" y="228"/>
      <point x="220" y="228" type="curve" smooth="yes"/>
      <point x="185" y="228"/>
      <point x="159" y="213"/>
      <point x="140" y="194" type="curve" smooth="yes"/>
      <point x="109" y="164"/>
      <point x="92" y="99"/>
      <point x="92" y="13" type="curve" smooth="yes"/>
      <point x="92" y="1"/>
      <point x="103" y="-10"/>
      <point x="115" y="-10" type="curve" smooth="yes"/>
      <point x="127" y="-10"/>
      <point x="138" y="1"/>
    </contour>
  </outline>
</glyph>
<glyph name="knPH" format="1">
  <advance width="979"/>
  <outline>
    <contour>
      <point x="829" y="223" type="curve" smooth="yes"/>
      <point x="893" y="223"/>
      <point x="938" y="265"/>
      <point x="938" y="333" type="curve" smooth="yes"/>
      <point x="938" y="389"/>
      <point x="900" y="453"/>
      <point x="798" y="456" type="curve"/>
      <point x="819" y="482"/>
      <point x="850" y="508"/>
      <point x="894" y="532" type="curve" smooth="yes"/>
      <point x="902" y="536"/>
      <point x="906" y="544"/>
      <point x="906" y="552" type="curve" smooth="yes"/>
      <point x="906" y="566"/>
      <point x="894" y="575"/>
      <point x="883" y="575" type="curve" smooth="yes"/>
      <point x="879" y="575"/>
      <point x="875" y="574"/>
      <point x="872" y="572" type="curve" smooth="yes"/>
      <point x="805" y="536"/>
      <point x="765" y="495"/>
      <point x="741" y="456" type="curve"/>
      <point x="106" y="456" type="line" smooth="yes"/>
      <point x="94" y="456"/>
      <point x="83" y="445"/>
      <point x="83" y="433" type="curve" smooth="yes"/>
      <point x="83" y="421"/>
      <point x="94" y="410"/>
      <point x="106" y="410" type="curve" smooth="yes"/>
      <point x="283" y="410" type="line"/>
      <point x="272" y="390"/>
      <point x="268" y="370"/>
      <point x="268" y="352" type="curve" smooth="yes"/>
      <point x="268" y="298"/>
      <point x="309" y="246"/>
      <point x="383" y="246" type="curve" smooth="yes"/>
      <point x="459" y="246"/>
      <point x="498" y="297"/>
      <point x="498" y="353" type="curve" smooth="yes"/>
      <point x="498" y="371"/>
      <point x="494" y="391"/>
      <point x="484" y="410" type="curve"/>
      <point x="721" y="410" type="line"/>
      <point x="714" y="387"/>
      <point x="712" y="365"/>
      <point x="712" y="345" type="curve" smooth="yes"/>
      <point x="712" y="270"/>
      <point x="767" y="223"/>
    </contour>
    <contour>
      <point x="383" y="292" type="curve" smooth="yes"/>
      <point x="341" y="292"/>
      <point x="314" y="320"/>
      <point x="314" y="352" type="curve" smooth="yes"/>
      <point x="314" y="371"/>
      <point x="321" y="392"/>
      <point x="340" y="410" type="curve"/>
      <point x="428" y="410" type="line"/>
      <point x="446" y="391"/>
      <point x="452" y="371"/>
      <point x="452" y="353" type="curve" smooth="yes"/>
      <point x="452" y="319"/>
      <point x="427" y="292"/>
    </contour>
    <contour>
      <point x="829" y="269" type="curve" smooth="yes"/>
      <point x="791" y="269"/>
      <point x="758" y="300"/>
      <point x="758" y="345" type="curve" smooth="yes"/>
      <point x="758" y="365"/>
      <point x="761" y="387"/>
      <point x="771" y="410" type="curve"/>
      <point x="790" y="410" type="line" smooth="yes"/>
      <point x="858" y="410"/>
      <point x="892" y="372"/>
      <point x="892" y="333" type="curve" smooth="yes"/>
      <point x="892" y="293"/>
      <point x="867" y="269"/>
    </contour>
    <contour>
      <point x="547" y="0" type="curve" smooth="yes"/>
      <point x="633" y="0"/>
      <point x="685" y="58"/>
      <point x="685" y="141" type="curve" smooth="yes"/>
      <point x="685" y="180"/>
      <point x="674" y="217"/>
      <point x="661" y="246" type="curve" smooth="yes"/>
      <point x="657" y="254"/>
      <point x="649" y="259"/>
      <point x="640" y="259" type="curve" smooth="yes"/>
      <point x="625" y="259"/>
      <point x="617" y="248"/>
      <point x="617" y="236" type="curve" smooth="yes"/>
      <point x="617" y="232"/>
      <point x="618" y="229"/>
      <point x="622" y="220" type="curve" smooth="yes"/>
      <point x="630" y="203"/>
      <point x="639" y="172"/>
      <point x="639" y="141" type="curve" smooth="yes"/>
      <point x="639" y="86"/>
      <point x="605" y="46"/>
      <point x="547" y="46" type="curve" smooth="yes"/>
      <point x="482" y="46"/>
      <point x="442" y="79"/>
      <point x="405" y="136" type="curve" smooth="yes"/>
      <point x="401" y="143"/>
      <point x="394" y="147"/>
      <point x="386" y="147" type="curve" smooth="yes"/>
      <point x="381" y="147" type="line" smooth="yes"/>
      <point x="374" y="147"/>
      <point x="366" y="143"/>
      <point x="362" y="137" type="curve" smooth="yes"/>
      <point x="321" y="76"/>
      <point x="283" y="44"/>
      <point x="222" y="44" type="curve" smooth="yes"/>
      <point x="164" y="44"/>
      <point x="126" y="75"/>
      <point x="126" y="118" type="curve" smooth="yes"/>
      <point x="126" y="156"/>
      <point x="155" y="186"/>
      <point x="202" y="193" type="curve" smooth="yes"/>
      <point x="214" y="195"/>
      <point x="222" y="205"/>
      <point x="222" y="216" type="curve" smooth="yes"/>
      <point x="222" y="229"/>
      <point x="213" y="238"/>
      <point x="199" y="238" type="curve" smooth="yes"/>
      <point x="137" y="238"/>
      <point x="80" y="188"/>
      <point x="80" y="118" type="curve" smooth="yes"/>
      <point x="80" y="55"/>
      <point x="128" y="-2"/>
      <point x="222" y="-2" type="curve" smooth="yes"/>
      <point x="289" y="-2"/>
      <point x="336" y="27"/>
      <point x="383" y="88" type="curve"/>
      <point x="426" y="31"/>
      <point x="475" y="0"/>
    </contour>
    <contour>
      <point x="397" y="-93" type="line" smooth="yes"/>
      <point x="397" y="-81"/>
      <point x="386" y="-70"/>
      <point x="374" y="-70" type="curve" smooth="yes"/>
      <point x="362" y="-70"/>
      <point x="351" y="-81"/>
      <point x="351" y="-93" type="curve" smooth="yes"/>
      <point x="351" y="-196" type="line" smooth="yes"/>
      <point x="351" y="-208"/>
      <point x="362" y="-219"/>
      <point x="374" y="-219" type="curve" smooth="yes"/>
      <point x="386" y="-219"/>
      <point x="397" y="-208"/>
      <point x="397" y="-196" type="curve" smooth="yes"/>
    </contour>
  </outline>
</glyph>
<glyph name="knRRAc2.following" format="1">
  <advance width="511"/>
  <outline>
    <contour>
      <point x="530" y="-377" type="curve" smooth="yes"/>
      <point x="599" y="-377"/>
      <point x="653" y="-330"/>
      <point x="653" y="-247" type="curve" smooth="yes"/>
      <point x="653" y="-145"/>
      <point x="596" y="-98"/>
      <point x="540" y="-98" type="curve" smooth="yes"/>
      <point x="485" y="-98"/>
      <point x="461" y="-131"/>
      <point x="461" y="-175" type="curve" smooth="yes"/>
      <point x="461" y="-186"/>
      <point x="463" y="-195"/>
      <point x="466" y="-204" type="curve"/>
      <point x="395" y="-204" type="line"/>
      <point x="399" y="-195"/>
      <point x="401" y="-186"/>
      <point x="401" y="-175" type="curve" smooth="yes"/>
      <point x="401" y="-132"/>
      <point x="376" y="-98"/>
      <point x="321" y="-98" type="curve" smooth="yes"/>
      <point x="265" y="-98"/>
      <point x="208" y="-145"/>
      <point x="208" y="-247" type="curve" smooth="yes"/>
      <point x="208" y="-330"/>
      <point x="262" y="-377"/>
      <point x="331" y="-377" type="curve" smooth="yes"/>
      <point x="376" y="-377"/>
      <point x="405" y="-363"/>
      <point x="430" y="-338" type="curve"/>
      <point x="456" y="-363"/>
      <point x="485" y="-377"/>
    </contour>
    <contour>
      <point x="503" y="-175" type="curve" smooth="yes"/>
      <point x="503" y="-155"/>
      <point x="515" y="-140"/>
      <point x="540" y="-140" type="curve" smooth="yes"/>
      <point x="570" y="-140"/>
      <point x="595" y="-164"/>
      <point x="606" y="-204" type="curve"/>
      <point x="511" y="-204" type="line"/>
      <point x="507" y="-196"/>
      <point x="503" y="-187"/>
    </contour>
    <contour>
      <point x="321" y="-140" type="curve" smooth="yes"/>
      <point x="346" y="-140"/>
      <point x="359" y="-154"/>
      <point x="359" y="-175" type="curve" smooth="yes"/>
      <point x="359" y="-187"/>
      <point x="352" y="-197"/>
      <point x="344" y="-204" type="curve"/>
      <point x="255" y="-204" type="line"/>
      <point x="266" y="-164"/>
      <point x="291" y="-140"/>
    </contour>
    <contour>
      <point x="530" y="-335" type="curve" smooth="yes"/>
      <point x="491" y="-335"/>
      <point x="470" y="-320"/>
      <point x="448" y="-295" type="curve" smooth="yes"/>
      <point x="444" y="-291"/>
      <point x="437" y="-288"/>
      <point x="432" y="-288" type="curve" smooth="yes"/>
      <point x="429" y="-288" type="line" smooth="yes"/>
      <point x="424" y="-288"/>
      <point x="417" y="-291"/>
      <point x="413" y="-296" type="curve" smooth="yes"/>
      <point x="393" y="-321"/>
      <point x="369" y="-335"/>
      <point x="331" y="-335" type="curve" smooth="yes"/>
      <point x="284" y="-335"/>
      <point x="250" y="-302"/>
      <point x="250" y="-247" type="curve" smooth="yes"/>
      <point x="250" y="-246" type="line"/>
      <point x="611" y="-246" type="line"/>
      <point x="611" y="-247" type="line" smooth="yes"/>
      <point x="611" y="-302"/>
      <point x="577" y="-335"/>
    </contour>
  </outline>
</glyph>
<glyph name="knRRI" format="1">
  <advance width="767"/>
  <outline>
    <contour>
      <point x="530" y="0" type="curve" smooth="yes"/>
      <point x="626" y="0"/>
      <point x="700" y="84"/>
      <point x="700" y="207" type="curve" smooth="yes"/>
      <point x="700" y="339"/>
      <point x="624" y="422"/>
      <point x="547" y="422" type="curve" smooth="yes"/>
      <point x="476" y="422"/>
      <point x="436" y="379"/>
      <point x="436" y="322" type="curve" smooth="yes"/>
      <point x="436" y="302"/>
      <point x="442" y="285"/>
      <point x="451" y="270" type="curve"/>
      <point x="320" y="270" type="line"/>
      <point x="329" y="285"/>
      <point x="335" y="302"/>
      <point x="335" y="322" type="curve" smooth="yes"/>
      <point x="335" y="362"/>
      <point x="315" y="395"/>
      <point x="279" y="411" type="curve"/>
      <point x="320" y="446"/>
      <point x="345" y="498"/>
      <point x="345" y="549" type="curve" smooth="yes"/>
      <point x="345" y="627"/>
      <point x="282" y="707"/>
      <point x="200" y="707" type="curve" smooth="yes"/>
      <point x="128" y="707"/>
      <point x="86" y="658"/>
      <point x="86" y="605" type="curve" smooth="yes"/>
      <point x="86" y="547"/>
      <point x="132" y="505"/>
      <point x="194" y="505" type="curve" smooth="yes"/>
      <point x="234" y="505"/>
      <point x="267" y="515"/>
      <point x="299" y="542" type="curve"/>
      <point x="295" y="488"/>
      <point x="256" y="435"/>
      <point x="194" y="418" type="curve" smooth="yes"/>
      <point x="128" y="400"/>
      <point x="71" y="321"/>
      <point x="71" y="207" type="curve" smooth="yes"/>
      <point x="71" y="84"/>
      <point x="145" y="0"/>
      <point x="241" y="0" type="curve" smooth="yes"/>
      <point x="305" y="0"/>
      <point x="348" y="24"/>
      <point x="385" y="76" type="curve"/>
      <point x="423" y="24"/>
      <point x="466" y="0"/>
    </contour>
    <contour>
      <point x="194" y="551" type="curve" smooth="yes"/>
      <point x="160" y="551"/>
      <point x="132" y="571"/>
      <point x="132" y="605" type="curve" smooth="yes"/>
      <point x="132" y="636"/>
      <point x="160" y="661"/>
      <point x="200" y="661" type="curve" smooth="yes"/>
      <point x="241" y="661"/>
      <point x="273" y="632"/>
      <point x="289" y="597" type="curve"/>
      <point x="260" y="563"/>
      <point x="231" y="551"/>
    </contour>
    <contour>
      <point x="547" y="270" type="curve" smooth="yes"/>
      <point x="514" y="270"/>
      <point x="482" y="288"/>
      <point x="482" y="322" type="curve" smooth="yes"/>
      <point x="482" y="355"/>
      <point x="508" y="376"/>
      <point x="547" y="376" type="curve" smooth="yes"/>
      <point x="580" y="376"/>
      <point x="609" y="353"/>
      <point x="628" y="318" type="curve"/>
      <point x="606" y="289"/>
      <point x="580" y="270"/>
    </contour>
    <contour>
      <point x="224" y="270" type="curve" smooth="yes"/>
      <point x="191" y="270"/>
      <point x="165" y="289"/>
      <point x="143" y="318" type="curve"/>
      <point x="162" y="353"/>
      <point x="191" y="376"/>
      <point x="224" y="376" type="curve" smooth="yes"/>
      <point x="263" y="376"/>
      <point x="289" y="355"/>
      <point x="289" y="322" type="curve" smooth="yes"/>
      <point x="289" y="288"/>
      <point x="257" y="270"/>
    </contour>
    <contour>
      <point x="530" y="46" type="curve" smooth="yes"/>
      <point x="474" y="46"/>
      <point x="440" y="72"/>
      <point x="408" y="127" type="curve" smooth="yes"/>
      <point x="404" y="133"/>
      <point x="395" y="138"/>
      <point x="388" y="138" type="curve" smooth="yes"/>
      <point x="383" y="138" type="line" smooth="yes"/>
      <point x="376" y="138"/>
      <point x="367" y="133"/>
      <point x="363" y="127" type="curve" smooth="yes"/>
      <point x="331" y="72"/>
      <point x="297" y="46"/>
      <point x="241" y="46" type="curve" smooth="yes"/>
      <point x="167" y="46"/>
      <point x="117" y="118"/>
      <point x="117" y="207" type="curve" smooth="yes"/>
      <point x="117" y="229"/>
      <point x="120" y="249"/>
      <point x="124" y="268" type="curve"/>
      <point x="154" y="239"/>
      <point x="186" y="224"/>
      <point x="225" y="224" type="curve"/>
      <point x="547" y="224" type="line" smooth="yes"/>
      <point x="585" y="224"/>
      <point x="618" y="240"/>
      <point x="647" y="268" type="curve"/>
      <point x="651" y="249"/>
      <point x="654" y="229"/>
      <point x="654" y="207" type="curve" smooth="yes"/>
      <point x="654" y="118"/>
      <point x="604" y="46"/>
    </contour>
  </outline>
</glyph>
<glyph name="knReph" format="1">
  <advance width="496"/>
  <outline>
    <contour>
      <point x="174" y="14" type="curve" smooth="yes"/>
      <point x="180" y="18"/>
      <point x="184" y="26"/>
      <point x="184" y="33" type="curve" smooth="yes"/>
      <point x="184" y="37"/>
      <point x="183" y="42"/>
      <point x="180" y="46" type="curve" smooth="yes"/>
      <point x="168" y="65"/>
      <point x="157" y="90"/>
      <point x="157" y="116" type="curve" smooth="yes"/>
      <point x="157" y="162"/>
      <point x="185" y="202"/>
      <point x="237" y="216" type="curve"/>
      <point x="307" y="216" type="line" smooth="yes"/>
      <point x="319" y="216"/>
      <point x="330" y="227"/>
      <point x="330" y="239" type="curve" smooth="yes"/>
      <point x="330" y="251"/>
      <point x="319" y="262"/>
      <point x="307" y="262" type="curve" smooth="yes"/>
      <point x="245" y="262" type="line" smooth="yes"/>
      <point x="173" y="262"/>
      <point x="123" y="293"/>
      <point x="123" y="338" type="curve" smooth="yes"/>
      <point x="123" y="377"/>
      <point x="157" y="410"/>
      <point x="225" y="410" type="curve" smooth="yes"/>
      <point x="423" y="410" type="line" smooth="yes"/>
      <point x="435" y="410"/>
      <point x="446" y="421"/>
      <point x="446" y="433" type="curve" smooth="yes"/>
      <point x="446" y="445"/>
      <point x="435" y="456"/>
      <point x="423" y="456" type="curve" smooth="yes"/>
      <point x="225" y="456" type="line" smooth="yes"/>
      <point x="113" y="456"/>
      <point x="77" y="395"/>
      <point x="77" y="338" type="curve" smooth="yes"/>
      <point x="77" y="293"/>
      <point x="105" y="248"/>
      <point x="164" y="229" type="curve"/>
      <point x="129" y="202"/>
      <point x="111" y="160"/>
      <point x="111" y="116" type="curve" smooth="yes"/>
      <point x="111" y="80"/>
      <point x="124" y="47"/>
      <point x="142" y="20" type="curve" smooth="yes"/>
      <point x="146" y="14"/>
      <point x="154" y="10"/>
      <point x="161" y="10" type="curve" smooth="yes"/>
      <point x="165" y="10"/>
      <point x="170" y="11"/>
    </contour>
  </outline>
</glyph>
<glyph name="knSHI" format="1">
  <advance width="620"/>
  <outline>
    <contour>
      <point x="184" y="469" type="curve" smooth="yes"/>
      <point x="143" y="469"/>
      <point x="119" y="497"/>
      <point x="119" y="527" type="curve" smooth="yes"/>
      <point x="119" y="555"/>
      <point x="142" y="588"/>
      <point x="186" y="588" type="curve" smooth="yes"/>
      <point x="223" y="588"/>
      <point x="253" y="574"/>
      <point x="284" y="543" type="curve" smooth="yes"/>
      <point x="285" y="542"/>
      <point x="287" y="540"/>
      <point x="288" y="538" type="curve"/>
      <point x="258" y="493"/>
      <point x="225" y="469"/>
    </contour>
    <contour>
      <point x="284" y="0" type="curve" smooth="yes"/>
      <point x="395" y="0"/>
      <point x="468" y="42"/>
      <point x="496" y="70" type="curve" smooth="yes"/>
      <point x="528" y="102"/>
      <point x="551" y="144"/>
      <point x="551" y="197" type="curve" smooth="yes"/>
      <point x="551" y="282"/>
      <point x="496" y="345"/>
      <point x="405" y="370" type="curve"/>
      <point x="400" y="448"/>
      <point x="359" y="533"/>
      <point x="316" y="575" type="curve" smooth="yes"/>
      <point x="275" y="616"/>
      <point x="235" y="634"/>
      <point x="186" y="634" type="curve" smooth="yes"/>
      <point x="110" y="634"/>
      <point x="73" y="575"/>
      <point x="73" y="527" type="curve" smooth="yes"/>
      <point x="73" y="475"/>
      <point x="111" y="423"/>
      <point x="184" y="423" type="curve" smooth="yes"/>
      <point x="234" y="423"/>
      <point x="277" y="447"/>
      <point x="317" y="499" type="curve"/>
      <point x="337" y="464"/>
      <point x="353" y="421"/>
      <point x="358" y="380" type="curve"/>
      <point x="344" y="381"/>
      <point x="330" y="382"/>
      <point x="315" y="382" type="curve" smooth="yes"/>
      <point x="233" y="382"/>
      <point x="185" y="363"/>
      <point x="150" y="327" type="curve" smooth="yes"/>
      <point x="146" y="323"/>
      <point x="143" y="317"/>
      <point x="143" y="311" type="curve" smooth="yes"/>
      <point x="143" y="298"/>
      <point x="153" y="288"/>
      <point x="166" y="288" type="curve" smooth="yes"/>
      <point x="172" y="288"/>
      <point x="178" y="291"/>
      <point x="182" y="295" type="curve" smooth="yes"/>
      <point x="211" y="323"/>
      <point x="251" y="336"/>
      <point x="315" y="336" type="curve" smooth="yes"/>
      <point x="330" y="336"/>
      <point x="345" y="335"/>
      <point x="359" y="333" type="curve"/>
      <point x="350" y="267"/>
      <point x="299" y="237"/>
      <point x="244" y="232" type="curve" smooth="yes"/>
      <point x="148" y="223"/>
      <point x="118" y="209"/>
      <point x="99" y="191" type="curve" smooth="yes"/>
      <point x="79" y="173"/>
      <point x="69" y="150"/>
      <point x="69" y="120" type="curve" smooth="yes"/>
      <point x="69" y="74"/>
      <point x="100" y="0"/>
    </contour>
    <contour>
      <point x="284" y="46" type="curve" smooth="yes"/>
      <point x="170" y="46"/>
      <point x="115" y="84"/>
      <point x="115" y="120" type="curve" smooth="yes"/>
      <point x="115" y="136"/>
      <point x="120" y="148"/>
      <point x="131" y="157" type="curve" smooth="yes"/>
      <point x="145" y="170"/>
      <point x="172" y="179"/>
      <point x="248" y="186" type="curve" smooth="yes"/>
      <point x="324" y="193"/>
      <point x="391" y="234"/>
      <point x="404" y="322" type="curve"/>
      <point x="464" y="302"/>
      <point x="505" y="258"/>
      <point x="505" y="197" type="curve" smooth="yes"/>
      <point x="505" y="158"/>
      <point x="488" y="126"/>
      <point x="464" y="102" type="curve" smooth="yes"/>
      <point x="440" y="78"/>
      <point x="377" y="46"/>
    </contour>
  </outline>
</glyph>
<glyph name="knT" format="1">
  <advance width="908"/>
  <outline>
    <contour>
      <point x="758" y="269" type="curve" smooth="yes"/>
      <point x="720" y="269"/>
      <point x="687" y="300"/>
      <point x="687" y="345" type="curve" smooth="yes"/>
      <point x="687" y="365"/>
      <point x="690" y="387"/>
      <point x="700" y="410" type="curve"/>
      <point x="719" y="410" type="line" smooth="yes"/>
      <point x="787" y="410"/>
      <point x="821" y="372"/>
      <point x="821" y="333" type="curve" smooth="yes"/>
      <point x="821" y="293"/>
      <point x="796" y="269"/>
    </contour>
    <contour>
      <point x="313" y="193" type="curve" smooth="yes"/>
      <point x="267" y="193"/>
      <point x="233" y="211"/>
      <point x="233" y="241" type="curve" smooth="yes"/>
      <point x="233" y="272"/>
      <point x="277" y="293"/>
      <point x="337" y="293" type="curve" smooth="yes"/>
      <point x="371" y="293"/>
      <point x="402" y="289"/>
      <point x="428" y="282" type="curve"/>
      <point x="424" y="233"/>
      <point x="380" y="193"/>
    </contour>
    <contour>
      <point x="342" y="-9" type="curve" smooth="yes"/>
      <point x="506" y="-9"/>
      <point x="585" y="71"/>
      <point x="585" y="163" type="curve" smooth="yes"/>
      <point x="585" y="224"/>
      <point x="551" y="284"/>
      <point x="473" y="316" type="curve"/>
      <point x="471" y="346"/>
      <point x="466" y="378"/>
      <point x="455" y="410" type="curve"/>
      <point x="650" y="410" type="line"/>
      <point x="643" y="387"/>
      <point x="641" y="365"/>
      <point x="641" y="345" type="curve" smooth="yes"/>
      <point x="641" y="270"/>
      <point x="696" y="223"/>
      <point x="758" y="223" type="curve" smooth="yes"/>
      <point x="822" y="223"/>
      <point x="867" y="265"/>
      <point x="867" y="333" type="curve" smooth="yes"/>
      <point x="867" y="389"/>
      <point x="829" y="453"/>
      <point x="727" y="456" type="curve"/>
      <point x="748" y="482"/>
      <point x="779" y="508"/>
      <point x="823" y="532" type="curve" smooth="yes"/>
      <point x="831" y="536"/>
      <point x="835" y="544"/>
      <point x="835" y="552" type="curve" smooth="yes"/>
      <point x="835" y="566"/>
      <point x="823" y="575"/>
      <point x="812" y="575" type="curve" smooth="yes"/>
      <point x="808" y="575"/>
      <point x="804" y="574"/>
      <point x="801" y="572" type="curve" smooth="yes"/>
      <point x="734" y="536"/>
      <point x="694" y="495"/>
      <point x="670" y="456" type="curve"/>
      <point x="100" y="456" type="line" smooth="yes"/>
      <point x="88" y="456"/>
      <point x="77" y="445"/>
      <point x="77" y="433" type="curve" smooth="yes"/>
      <point x="77" y="421"/>
      <point x="88" y="410"/>
      <point x="100" y="410" type="curve" smooth="yes"/>
      <point x="406" y="410" type="line"/>
      <point x="418" y="383"/>
      <point x="423" y="356"/>
      <point x="426" y="330" type="curve"/>
      <point x="400" y="336"/>
      <point x="370" y="339"/>
      <point x="337" y="339" type="curve" smooth="yes"/>
      <point x="225" y="339"/>
      <point x="187" y="286"/>
      <point x="187" y="241" type="curve" smooth="yes"/>
      <point x="187" y="196"/>
      <point x="219" y="147"/>
      <point x="312" y="147" type="curve" smooth="yes"/>
      <point x="406" y="147"/>
      <point x="460" y="201"/>
      <point x="472" y="264" type="curve"/>
      <point x="515" y="241"/>
      <point x="539" y="205"/>
      <point x="539" y="163" type="curve" smooth="yes"/>
      <point x="539" y="89"/>
      <point x="462" y="37"/>
      <point x="342" y="37" type="curve" smooth="yes"/>
      <point x="256" y="37"/>
      <point x="183" y="55"/>
      <point x="136" y="78" type="curve" smooth="yes"/>
      <point x="133" y="80"/>
      <point x="129" y="81"/>
      <point x="125" y="81" type="curve" smooth="yes"/>
      <point x="114" y="81"/>
      <point x="103" y="70"/>
      <point x="103" y="57" type="curve" smooth="yes"/>
      <point x="103" y="49"/>
      <point x="108" y="42"/>
      <point x="116" y="38" type="curve" smooth="yes"/>
      <point x="167" y="12"/>
      <point x="248" y="-9"/>
    </contour>
  </outline>
</glyph>
<glyph name="knVAc2.following" format="1">
  <advance width="514"/>
  <outline>
    <contour>
      <point x="532" y="-375" type="curve" smooth="yes"/>
      <point x="597" y="-375"/>
      <point x="632" y="-339"/>
      <point x="632" y="-286" type="curve" smooth="yes"/>
      <point x="632" y="-251"/>
      <point x="617" y="-202"/>
      <point x="536" y="-159" type="curve"/>
      <point x="569" y="-148"/>
      <point x="593" y="-129"/>
      <point x="608" y="-108" type="curve"/>
      <point x="611" y="-105"/>
      <point x="612" y="-100"/>
      <point x="612" y="-96" type="curve" smooth="yes"/>
      <point x="612" y="-86"/>
      <point x="602" y="-75"/>
      <point x="591" y="-75" type="curve" smooth="yes"/>
      <point x="585" y="-75"/>
      <point x="578" y="-78"/>
      <point x="574" y="-84" type="curve" smooth="yes"/>
      <point x="556" y="-110"/>
      <point x="518" y="-128"/>
      <point x="464" y="-128" type="curve" smooth="yes"/>
      <point x="326" y="-128" type="line" smooth="yes"/>
      <point x="315" y="-128"/>
      <point x="305" y="-138"/>
      <point x="305" y="-149" type="curve" smooth="yes"/>
      <point x="305" y="-160"/>
      <point x="315" y="-170"/>
      <point x="326" y="-170" type="curve" smooth="yes"/>
      <point x="453" y="-170" type="line"/>
      <point x="559" y="-205"/>
      <point x="590" y="-251"/>
      <point x="590" y="-286" type="curve" smooth="yes"/>
      <point x="590" y="-317"/>
      <point x="567" y="-333"/>
      <point x="532" y="-333" type="curve" smooth="yes"/>
      <point x="497" y="-333"/>
      <point x="463" y="-317"/>
      <point x="431" y="-289" type="curve" smooth="yes"/>
      <point x="427" y="-286"/>
      <point x="422" y="-284"/>
      <point x="417" y="-284" type="curve" smooth="yes"/>
      <point x="414" y="-284" type="line" smooth="yes"/>
      <point x="408" y="-284"/>
      <point x="403" y="-286"/>
      <point x="399" y="-291" type="curve" smooth="yes"/>
      <point x="374" y="-317"/>
      <point x="338" y="-335"/>
      <point x="303" y="-335" type="curve" smooth="yes"/>
      <point x="272" y="-335"/>
      <point x="252" y="-323"/>
      <point x="252" y="-302" type="curve" smooth="yes"/>
      <point x="252" y="-287"/>
      <point x="263" y="-271"/>
      <point x="279" y="-263" type="curve" smooth="yes"/>
      <point x="286" y="-259"/>
      <point x="290" y="-253"/>
      <point x="290" y="-245" type="curve" smooth="yes"/>
      <point x="290" y="-236"/>
      <point x="281" y="-224"/>
      <point x="269" y="-224" type="curve" smooth="yes"/>
      <point x="266" y="-224"/>
      <point x="262" y="-225"/>
      <point x="259" y="-227" type="curve" smooth="yes"/>
      <point x="227" y="-244"/>
      <point x="210" y="-273"/>
      <point x="210" y="-302" type="curve" smooth="yes"/>
      <point x="210" y="-339"/>
      <point x="234" y="-377"/>
      <point x="303" y="-377" type="curve" smooth="yes"/>
      <point x="344" y="-377"/>
      <point x="385" y="-360"/>
      <point x="416" y="-332" type="curve"/>
      <point x="454" y="-361"/>
      <point x="492" y="-375"/>
    </contour>
  </outline>
</glyph>
<glyph name="knY" format="1">
  <advance width="1498"/>
  <outline>
    <contour>
      <point x="1348" y="269" type="curve" smooth="yes"/>
      <point x="1310" y="269"/>
      <point x="1277" y="300"/>
      <point x="1277" y="345" type="curve" smooth="yes"/>
      <point x="1277" y="365"/>
      <point x="1280" y="387"/>
      <point x="1290" y="410" type="curve"/>
      <point x="1309" y="410" type="line" smooth="yes"/>
      <point x="1377" y="410"/>
      <point x="1411" y="372"/>
      <point x="1411" y="333" type="curve" smooth="yes"/>
      <point x="1411" y="293"/>
      <point x="1386" y="269"/>
    </contour>
    <contour>
      <point x="113" y="223" type="curve" smooth="yes"/>
      <point x="113" y="317"/>
      <point x="193" y="410"/>
      <point x="301" y="410" type="curve" smooth="yes"/>
      <point x="411" y="410"/>
      <point x="489" y="315"/>
      <point x="489" y="223" type="curve" smooth="yes"/>
      <point x="489" y="121"/>
      <point x="415" y="42"/>
      <point x="301" y="42" type="curve" smooth="yes"/>
      <point x="185" y="42"/>
      <point x="113" y="119"/>
    </contour>
    <contour>
      <point x="680" y="0" type="curve" smooth="yes"/>
      <point x="753" y="0"/>
      <point x="802" y="33"/>
      <point x="826" y="85" type="curve"/>
      <point x="881" y="22"/>
      <point x="933" y="0"/>
      <point x="991" y="0" type="curve" smooth="yes"/>
      <point x="1097" y="0"/>
      <point x="1153" y="69"/>
      <point x="1153" y="169" type="curve" smooth="yes"/>
      <point x="1153" y="248"/>
      <point x="1112" y="341"/>
      <point x="1056" y="410" type="curve"/>
      <point x="1240" y="410" type="line"/>
      <point x="1233" y="387"/>
      <point x="1231" y="365"/>
      <point x="1231" y="345" type="curve" smooth="yes"/>
      <point x="1231" y="270"/>
      <point x="1286" y="223"/>
      <point x="1348" y="223" type="curve" smooth="yes"/>
      <point x="1412" y="223"/>
      <point x="1457" y="265"/>
      <point x="1457" y="333" type="curve" smooth="yes"/>
      <point x="1457" y="389"/>
      <point x="1419" y="453"/>
      <point x="1317" y="456" type="curve"/>
      <point x="1338" y="482"/>
      <point x="1369" y="508"/>
      <point x="1413" y="532" type="curve" smooth="yes"/>
      <point x="1421" y="536"/>
      <point x="1425" y="544"/>
      <point x="1425" y="552" type="curve" smooth="yes"/>
      <point x="1425" y="566"/>
      <point x="1413" y="575"/>
      <point x="1402" y="575" type="curve" smooth="yes"/>
      <point x="1398" y="575"/>
      <point x="1394" y="574"/>
      <point x="1391" y="572" type="curve"/>
      <point x="1324" y="536"/>
      <point x="1284" y="495"/>
      <point x="1260" y="456" type="curve"/>
      <point x="944" y="456" type="line" smooth="yes"/>
      <point x="932" y="456"/>
      <point x="921" y="445"/>
      <point x="921" y="433" type="curve" smooth="yes"/>
      <point x="921" y="421"/>
      <point x="932" y="410"/>
      <point x="944" y="410" type="curve" smooth="yes"/>
      <point x="991" y="410" type="line"/>
      <point x="998" y="404"/>
      <point x="1005" y="399"/>
      <point x="1007" y="397" type="curve" smooth="yes"/>
      <point x="1063" y="335"/>
      <point x="1107" y="245"/>
      <point x="1107" y="169" type="curve" smooth="yes"/>
      <point x="1107" y="97"/>
      <point x="1069" y="46"/>
      <point x="991" y="46" type="curve" smooth="yes"/>
      <point x="937" y="46"/>
      <point x="892" y="72"/>
      <point x="840" y="139" type="curve"/>
      <point x="841" y="149"/>
      <point x="842" y="159"/>
      <point x="842" y="169" type="curve" smooth="yes"/>
      <point x="842" y="245"/>
      <point x="810" y="331"/>
      <point x="744" y="413" type="curve"/>
      <point x="802" y="422"/>
      <point x="839" y="451"/>
      <point x="869" y="499" type="curve" smooth="yes"/>
      <point x="871" y="503"/>
      <point x="872" y="507"/>
      <point x="872" y="511" type="curve" smooth="yes"/>
      <point x="872" y="523"/>
      <point x="863" y="534"/>
      <point x="849" y="534" type="curve" smooth="yes"/>
      <point x="841" y="534"/>
      <point x="834" y="531"/>
      <point x="829" y="524" type="curve" smooth="yes"/>
      <point x="801" y="479"/>
      <point x="764" y="456"/>
      <point x="701" y="456" type="curve" smooth="yes"/>
      <point x="589" y="456" type="line" smooth="yes"/>
      <point x="577" y="456"/>
      <point x="566" y="445"/>
      <point x="566" y="433" type="curve" smooth="yes"/>
      <point x="566" y="421"/>
      <point x="577" y="410"/>
      <point x="589" y="410" type="curve" smooth="yes"/>
      <point x="687" y="410" type="line"/>
      <point x="759" y="329"/>
      <point x="796" y="243"/>
      <point x="796" y="169" type="curve" smooth="yes"/>
      <point x="796" y="97"/>
      <point x="758" y="46"/>
      <point x="680" y="46" type="curve" smooth="yes"/>
      <point x="627" y="46"/>
      <point x="575" y="78"/>
      <point x="523" y="147" type="curve"/>
      <point x="531" y="170"/>
      <point x="535" y="196"/>
      <point x="535" y="223" type="curve" smooth="yes"/>
      <point x="535" y="337"/>
      <point x="437" y="456"/>
      <point x="301" y="456" type="curve" smooth="yes"/>
      <point x="167" y="456"/>
      <point x="67" y="339"/>
      <point x="67" y="223" type="curve" smooth="yes"/>
      <point x="67" y="93"/>
      <point x="155" y="-4"/>
      <point x="301" y="-4" type="curve" smooth="yes"/>
      <point x="393" y="-4"/>
      <point x="463" y="37"/>
      <point x="502" y="99" type="curve"/>
      <point x="560" y="28"/>
      <point x="620" y="0"/>
    </contour>
  </outline>
</glyph>
